<?xml version="1.0" encoding="utf-8" standalone="no"?>
<!DOCTYPE svg PUBLIC "-//W3C//DTD SVG 1.1//EN"
  "http://www.w3.org/Graphics/SVG/1.1/DTD/svg11.dtd">
<svg xmlns:xlink="http://www.w3.org/1999/xlink" width="720pt" height="432pt" viewBox="0 0 720 432" xmlns="http://www.w3.org/2000/svg" version="1.1">
 <metadata>
  <rdf:RDF xmlns:dc="http://purl.org/dc/elements/1.1/" xmlns:cc="http://creativecommons.org/ns#" xmlns:rdf="http://www.w3.org/1999/02/22-rdf-syntax-ns#">
   <cc:Work>
    <dc:type rdf:resource="http://purl.org/dc/dcmitype/StillImage"/>
    <dc:date>2025-06-11T18:59:20.452631</dc:date>
    <dc:format>image/svg+xml</dc:format>
    <dc:creator>
     <cc:Agent>
      <dc:title>Matplotlib v3.10.0, https://matplotlib.org/</dc:title>
     </cc:Agent>
    </dc:creator>
   </cc:Work>
  </rdf:RDF>
 </metadata>
 <defs>
  <style type="text/css">*{stroke-linejoin: round; stroke-linecap: butt}</style>
 </defs>
 <g id="figure_1">
  <g id="patch_1">
   <path d="M 0 432 
L 720 432 
L 720 0 
L 0 0 
z
" style="fill: #ffffff"/>
  </g>
  <g id="axes_1">
   <g id="patch_2">
    <path d="M 90 384.48 
L 648 384.48 
L 648 51.84 
L 90 51.84 
z
" style="fill: #ffffff"/>
   </g>
   <g id="patch_3">
    <path d="M 90 55.1664 
L 621.428571 55.1664 
L 621.428571 81.7776 
L 90 81.7776 
z
" clip-path="url(#p7a7297ef73)" style="fill: #dc9f82"/>
   </g>
   <g id="patch_4">
    <path d="M 90 88.4304 
L 343.904762 88.4304 
L 343.904762 115.0416 
L 90 115.0416 
z
" clip-path="url(#p7a7297ef73)" style="fill: #d88c76"/>
   </g>
   <g id="patch_5">
    <path d="M 90 121.6944 
L 280.224176 121.6944 
L 280.224176 148.3056 
L 90 148.3056 
z
" clip-path="url(#p7a7297ef73)" style="fill: #d3796e"/>
   </g>
   <g id="patch_6">
    <path d="M 90 154.9584 
L 269.413919 154.9584 
L 269.413919 181.5696 
L 90 181.5696 
z
" clip-path="url(#p7a7297ef73)" style="fill: #ca666c"/>
   </g>
   <g id="patch_7">
    <path d="M 90 188.2224 
L 251.881319 188.2224 
L 251.881319 214.8336 
L 90 214.8336 
z
" clip-path="url(#p7a7297ef73)" style="fill: #bb566d"/>
   </g>
   <g id="patch_8">
    <path d="M 90 221.4864 
L 242.706227 221.4864 
L 242.706227 248.0976 
L 90 248.0976 
z
" clip-path="url(#p7a7297ef73)" style="fill: #a84d6f"/>
   </g>
   <g id="patch_9">
    <path d="M 90 254.7504 
L 237.34652 254.7504 
L 237.34652 281.3616 
L 90 281.3616 
z
" clip-path="url(#p7a7297ef73)" style="fill: #94456e"/>
   </g>
   <g id="patch_10">
    <path d="M 90 288.0144 
L 235.620513 288.0144 
L 235.620513 314.6256 
L 90 314.6256 
z
" clip-path="url(#p7a7297ef73)" style="fill: #803d6c"/>
   </g>
   <g id="patch_11">
    <path d="M 90 321.2784 
L 233.349451 321.2784 
L 233.349451 347.8896 
L 90 347.8896 
z
" clip-path="url(#p7a7297ef73)" style="fill: #6c3667"/>
   </g>
   <g id="patch_12">
    <path d="M 90 354.5424 
L 229.170696 354.5424 
L 229.170696 381.1536 
L 90 381.1536 
z
" clip-path="url(#p7a7297ef73)" style="fill: #5a3161"/>
   </g>
   <g id="matplotlib.axis_1">
    <g id="xtick_1">
     <g id="line2d_1">
      <defs>
       <path id="m6401dbd034" d="M 0 0 
L 0 3.5 
" style="stroke: #000000; stroke-width: 0.8"/>
      </defs>
      <g>
       <use xlink:href="#m6401dbd034" x="90" y="384.48" style="stroke: #000000; stroke-width: 0.8"/>
      </g>
     </g>
     <g id="text_1">
      <!-- 0 -->
      <g transform="translate(86.81875 399.078438) scale(0.1 -0.1)">
       <defs>
        <path id="DejaVuSans-30" d="M 2034 4250 
Q 1547 4250 1301 3770 
Q 1056 3291 1056 2328 
Q 1056 1369 1301 889 
Q 1547 409 2034 409 
Q 2525 409 2770 889 
Q 3016 1369 3016 2328 
Q 3016 3291 2770 3770 
Q 2525 4250 2034 4250 
z
M 2034 4750 
Q 2819 4750 3233 4129 
Q 3647 3509 3647 2328 
Q 3647 1150 3233 529 
Q 2819 -91 2034 -91 
Q 1250 -91 836 529 
Q 422 1150 422 2328 
Q 422 3509 836 4129 
Q 1250 4750 2034 4750 
z
" transform="scale(0.015625)"/>
       </defs>
       <use xlink:href="#DejaVuSans-30"/>
      </g>
     </g>
    </g>
    <g id="xtick_2">
     <g id="line2d_2">
      <g>
       <use xlink:href="#m6401dbd034" x="180.842491" y="384.48" style="stroke: #000000; stroke-width: 0.8"/>
      </g>
     </g>
     <g id="text_2">
      <!-- 10 -->
      <g transform="translate(174.479991 399.078438) scale(0.1 -0.1)">
       <defs>
        <path id="DejaVuSans-31" d="M 794 531 
L 1825 531 
L 1825 4091 
L 703 3866 
L 703 4441 
L 1819 4666 
L 2450 4666 
L 2450 531 
L 3481 531 
L 3481 0 
L 794 0 
L 794 531 
z
" transform="scale(0.015625)"/>
       </defs>
       <use xlink:href="#DejaVuSans-31"/>
       <use xlink:href="#DejaVuSans-30" transform="translate(63.623047 0)"/>
      </g>
     </g>
    </g>
    <g id="xtick_3">
     <g id="line2d_3">
      <g>
       <use xlink:href="#m6401dbd034" x="271.684982" y="384.48" style="stroke: #000000; stroke-width: 0.8"/>
      </g>
     </g>
     <g id="text_3">
      <!-- 20 -->
      <g transform="translate(265.322482 399.078438) scale(0.1 -0.1)">
       <defs>
        <path id="DejaVuSans-32" d="M 1228 531 
L 3431 531 
L 3431 0 
L 469 0 
L 469 531 
Q 828 903 1448 1529 
Q 2069 2156 2228 2338 
Q 2531 2678 2651 2914 
Q 2772 3150 2772 3378 
Q 2772 3750 2511 3984 
Q 2250 4219 1831 4219 
Q 1534 4219 1204 4116 
Q 875 4013 500 3803 
L 500 4441 
Q 881 4594 1212 4672 
Q 1544 4750 1819 4750 
Q 2544 4750 2975 4387 
Q 3406 4025 3406 3419 
Q 3406 3131 3298 2873 
Q 3191 2616 2906 2266 
Q 2828 2175 2409 1742 
Q 1991 1309 1228 531 
z
" transform="scale(0.015625)"/>
       </defs>
       <use xlink:href="#DejaVuSans-32"/>
       <use xlink:href="#DejaVuSans-30" transform="translate(63.623047 0)"/>
      </g>
     </g>
    </g>
    <g id="xtick_4">
     <g id="line2d_4">
      <g>
       <use xlink:href="#m6401dbd034" x="362.527473" y="384.48" style="stroke: #000000; stroke-width: 0.8"/>
      </g>
     </g>
     <g id="text_4">
      <!-- 30 -->
      <g transform="translate(356.164973 399.078438) scale(0.1 -0.1)">
       <defs>
        <path id="DejaVuSans-33" d="M 2597 2516 
Q 3050 2419 3304 2112 
Q 3559 1806 3559 1356 
Q 3559 666 3084 287 
Q 2609 -91 1734 -91 
Q 1441 -91 1130 -33 
Q 819 25 488 141 
L 488 750 
Q 750 597 1062 519 
Q 1375 441 1716 441 
Q 2309 441 2620 675 
Q 2931 909 2931 1356 
Q 2931 1769 2642 2001 
Q 2353 2234 1838 2234 
L 1294 2234 
L 1294 2753 
L 1863 2753 
Q 2328 2753 2575 2939 
Q 2822 3125 2822 3475 
Q 2822 3834 2567 4026 
Q 2313 4219 1838 4219 
Q 1578 4219 1281 4162 
Q 984 4106 628 3988 
L 628 4550 
Q 988 4650 1302 4700 
Q 1616 4750 1894 4750 
Q 2613 4750 3031 4423 
Q 3450 4097 3450 3541 
Q 3450 3153 3228 2886 
Q 3006 2619 2597 2516 
z
" transform="scale(0.015625)"/>
       </defs>
       <use xlink:href="#DejaVuSans-33"/>
       <use xlink:href="#DejaVuSans-30" transform="translate(63.623047 0)"/>
      </g>
     </g>
    </g>
    <g id="xtick_5">
     <g id="line2d_5">
      <g>
       <use xlink:href="#m6401dbd034" x="453.369963" y="384.48" style="stroke: #000000; stroke-width: 0.8"/>
      </g>
     </g>
     <g id="text_5">
      <!-- 40 -->
      <g transform="translate(447.007463 399.078438) scale(0.1 -0.1)">
       <defs>
        <path id="DejaVuSans-34" d="M 2419 4116 
L 825 1625 
L 2419 1625 
L 2419 4116 
z
M 2253 4666 
L 3047 4666 
L 3047 1625 
L 3713 1625 
L 3713 1100 
L 3047 1100 
L 3047 0 
L 2419 0 
L 2419 1100 
L 313 1100 
L 313 1709 
L 2253 4666 
z
" transform="scale(0.015625)"/>
       </defs>
       <use xlink:href="#DejaVuSans-34"/>
       <use xlink:href="#DejaVuSans-30" transform="translate(63.623047 0)"/>
      </g>
     </g>
    </g>
    <g id="xtick_6">
     <g id="line2d_6">
      <g>
       <use xlink:href="#m6401dbd034" x="544.212454" y="384.48" style="stroke: #000000; stroke-width: 0.8"/>
      </g>
     </g>
     <g id="text_6">
      <!-- 50 -->
      <g transform="translate(537.849954 399.078438) scale(0.1 -0.1)">
       <defs>
        <path id="DejaVuSans-35" d="M 691 4666 
L 3169 4666 
L 3169 4134 
L 1269 4134 
L 1269 2991 
Q 1406 3038 1543 3061 
Q 1681 3084 1819 3084 
Q 2600 3084 3056 2656 
Q 3513 2228 3513 1497 
Q 3513 744 3044 326 
Q 2575 -91 1722 -91 
Q 1428 -91 1123 -41 
Q 819 9 494 109 
L 494 744 
Q 775 591 1075 516 
Q 1375 441 1709 441 
Q 2250 441 2565 725 
Q 2881 1009 2881 1497 
Q 2881 1984 2565 2268 
Q 2250 2553 1709 2553 
Q 1456 2553 1204 2497 
Q 953 2441 691 2322 
L 691 4666 
z
" transform="scale(0.015625)"/>
       </defs>
       <use xlink:href="#DejaVuSans-35"/>
       <use xlink:href="#DejaVuSans-30" transform="translate(63.623047 0)"/>
      </g>
     </g>
    </g>
    <g id="xtick_7">
     <g id="line2d_7">
      <g>
       <use xlink:href="#m6401dbd034" x="635.054945" y="384.48" style="stroke: #000000; stroke-width: 0.8"/>
      </g>
     </g>
     <g id="text_7">
      <!-- 60 -->
      <g transform="translate(628.692445 399.078438) scale(0.1 -0.1)">
       <defs>
        <path id="DejaVuSans-36" d="M 2113 2584 
Q 1688 2584 1439 2293 
Q 1191 2003 1191 1497 
Q 1191 994 1439 701 
Q 1688 409 2113 409 
Q 2538 409 2786 701 
Q 3034 994 3034 1497 
Q 3034 2003 2786 2293 
Q 2538 2584 2113 2584 
z
M 3366 4563 
L 3366 3988 
Q 3128 4100 2886 4159 
Q 2644 4219 2406 4219 
Q 1781 4219 1451 3797 
Q 1122 3375 1075 2522 
Q 1259 2794 1537 2939 
Q 1816 3084 2150 3084 
Q 2853 3084 3261 2657 
Q 3669 2231 3669 1497 
Q 3669 778 3244 343 
Q 2819 -91 2113 -91 
Q 1303 -91 875 529 
Q 447 1150 447 2328 
Q 447 3434 972 4092 
Q 1497 4750 2381 4750 
Q 2619 4750 2861 4703 
Q 3103 4656 3366 4563 
z
" transform="scale(0.015625)"/>
       </defs>
       <use xlink:href="#DejaVuSans-36"/>
       <use xlink:href="#DejaVuSans-30" transform="translate(63.623047 0)"/>
      </g>
     </g>
    </g>
    <g id="text_8">
     <!-- Reviews per Month -->
     <g transform="translate(314.961719 412.756563) scale(0.1 -0.1)">
      <defs>
       <path id="DejaVuSans-Bold-52" d="M 2297 2597 
Q 2675 2597 2839 2737 
Q 3003 2878 3003 3200 
Q 3003 3519 2839 3656 
Q 2675 3794 2297 3794 
L 1791 3794 
L 1791 2597 
L 2297 2597 
z
M 1791 1766 
L 1791 0 
L 588 0 
L 588 4666 
L 2425 4666 
Q 3347 4666 3776 4356 
Q 4206 4047 4206 3378 
Q 4206 2916 3982 2619 
Q 3759 2322 3309 2181 
Q 3556 2125 3751 1926 
Q 3947 1728 4147 1325 
L 4800 0 
L 3519 0 
L 2950 1159 
Q 2778 1509 2601 1637 
Q 2425 1766 2131 1766 
L 1791 1766 
z
" transform="scale(0.015625)"/>
       <path id="DejaVuSans-Bold-65" d="M 4031 1759 
L 4031 1441 
L 1416 1441 
Q 1456 1047 1700 850 
Q 1944 653 2381 653 
Q 2734 653 3104 758 
Q 3475 863 3866 1075 
L 3866 213 
Q 3469 63 3072 -14 
Q 2675 -91 2278 -91 
Q 1328 -91 801 392 
Q 275 875 275 1747 
Q 275 2603 792 3093 
Q 1309 3584 2216 3584 
Q 3041 3584 3536 3087 
Q 4031 2591 4031 1759 
z
M 2881 2131 
Q 2881 2450 2695 2645 
Q 2509 2841 2209 2841 
Q 1884 2841 1681 2658 
Q 1478 2475 1428 2131 
L 2881 2131 
z
" transform="scale(0.015625)"/>
       <path id="DejaVuSans-Bold-76" d="M 97 3500 
L 1216 3500 
L 2088 1081 
L 2956 3500 
L 4078 3500 
L 2700 0 
L 1472 0 
L 97 3500 
z
" transform="scale(0.015625)"/>
       <path id="DejaVuSans-Bold-69" d="M 538 3500 
L 1656 3500 
L 1656 0 
L 538 0 
L 538 3500 
z
M 538 4863 
L 1656 4863 
L 1656 3950 
L 538 3950 
L 538 4863 
z
" transform="scale(0.015625)"/>
       <path id="DejaVuSans-Bold-77" d="M 225 3500 
L 1313 3500 
L 1900 1088 
L 2491 3500 
L 3425 3500 
L 4013 1113 
L 4603 3500 
L 5691 3500 
L 4769 0 
L 3547 0 
L 2956 2406 
L 2369 0 
L 1147 0 
L 225 3500 
z
" transform="scale(0.015625)"/>
       <path id="DejaVuSans-Bold-73" d="M 3272 3391 
L 3272 2541 
Q 2913 2691 2578 2766 
Q 2244 2841 1947 2841 
Q 1628 2841 1473 2761 
Q 1319 2681 1319 2516 
Q 1319 2381 1436 2309 
Q 1553 2238 1856 2203 
L 2053 2175 
Q 2913 2066 3209 1816 
Q 3506 1566 3506 1031 
Q 3506 472 3093 190 
Q 2681 -91 1863 -91 
Q 1516 -91 1145 -36 
Q 775 19 384 128 
L 384 978 
Q 719 816 1070 734 
Q 1422 653 1784 653 
Q 2113 653 2278 743 
Q 2444 834 2444 1013 
Q 2444 1163 2330 1236 
Q 2216 1309 1875 1350 
L 1678 1375 
Q 931 1469 631 1722 
Q 331 1975 331 2491 
Q 331 3047 712 3315 
Q 1094 3584 1881 3584 
Q 2191 3584 2531 3537 
Q 2872 3491 3272 3391 
z
" transform="scale(0.015625)"/>
       <path id="DejaVuSans-Bold-20" transform="scale(0.015625)"/>
       <path id="DejaVuSans-Bold-70" d="M 1656 506 
L 1656 -1331 
L 538 -1331 
L 538 3500 
L 1656 3500 
L 1656 2988 
Q 1888 3294 2169 3439 
Q 2450 3584 2816 3584 
Q 3463 3584 3878 3070 
Q 4294 2556 4294 1747 
Q 4294 938 3878 423 
Q 3463 -91 2816 -91 
Q 2450 -91 2169 54 
Q 1888 200 1656 506 
z
M 2400 2772 
Q 2041 2772 1848 2508 
Q 1656 2244 1656 1747 
Q 1656 1250 1848 986 
Q 2041 722 2400 722 
Q 2759 722 2948 984 
Q 3138 1247 3138 1747 
Q 3138 2247 2948 2509 
Q 2759 2772 2400 2772 
z
" transform="scale(0.015625)"/>
       <path id="DejaVuSans-Bold-72" d="M 3138 2547 
Q 2991 2616 2845 2648 
Q 2700 2681 2553 2681 
Q 2122 2681 1889 2404 
Q 1656 2128 1656 1613 
L 1656 0 
L 538 0 
L 538 3500 
L 1656 3500 
L 1656 2925 
Q 1872 3269 2151 3426 
Q 2431 3584 2822 3584 
Q 2878 3584 2943 3579 
Q 3009 3575 3134 3559 
L 3138 2547 
z
" transform="scale(0.015625)"/>
       <path id="DejaVuSans-Bold-4d" d="M 588 4666 
L 2119 4666 
L 3181 2169 
L 4250 4666 
L 5778 4666 
L 5778 0 
L 4641 0 
L 4641 3413 
L 3566 897 
L 2803 897 
L 1728 3413 
L 1728 0 
L 588 0 
L 588 4666 
z
" transform="scale(0.015625)"/>
       <path id="DejaVuSans-Bold-6f" d="M 2203 2784 
Q 1831 2784 1636 2517 
Q 1441 2250 1441 1747 
Q 1441 1244 1636 976 
Q 1831 709 2203 709 
Q 2569 709 2762 976 
Q 2956 1244 2956 1747 
Q 2956 2250 2762 2517 
Q 2569 2784 2203 2784 
z
M 2203 3584 
Q 3106 3584 3614 3096 
Q 4122 2609 4122 1747 
Q 4122 884 3614 396 
Q 3106 -91 2203 -91 
Q 1297 -91 786 396 
Q 275 884 275 1747 
Q 275 2609 786 3096 
Q 1297 3584 2203 3584 
z
" transform="scale(0.015625)"/>
       <path id="DejaVuSans-Bold-6e" d="M 4056 2131 
L 4056 0 
L 2931 0 
L 2931 347 
L 2931 1631 
Q 2931 2084 2911 2256 
Q 2891 2428 2841 2509 
Q 2775 2619 2662 2680 
Q 2550 2741 2406 2741 
Q 2056 2741 1856 2470 
Q 1656 2200 1656 1722 
L 1656 0 
L 538 0 
L 538 3500 
L 1656 3500 
L 1656 2988 
Q 1909 3294 2193 3439 
Q 2478 3584 2822 3584 
Q 3428 3584 3742 3212 
Q 4056 2841 4056 2131 
z
" transform="scale(0.015625)"/>
       <path id="DejaVuSans-Bold-74" d="M 1759 4494 
L 1759 3500 
L 2913 3500 
L 2913 2700 
L 1759 2700 
L 1759 1216 
Q 1759 972 1856 886 
Q 1953 800 2241 800 
L 2816 800 
L 2816 0 
L 1856 0 
Q 1194 0 917 276 
Q 641 553 641 1216 
L 641 2700 
L 84 2700 
L 84 3500 
L 641 3500 
L 641 4494 
L 1759 4494 
z
" transform="scale(0.015625)"/>
       <path id="DejaVuSans-Bold-68" d="M 4056 2131 
L 4056 0 
L 2931 0 
L 2931 347 
L 2931 1625 
Q 2931 2084 2911 2256 
Q 2891 2428 2841 2509 
Q 2775 2619 2662 2680 
Q 2550 2741 2406 2741 
Q 2056 2741 1856 2470 
Q 1656 2200 1656 1722 
L 1656 0 
L 538 0 
L 538 4863 
L 1656 4863 
L 1656 2988 
Q 1909 3294 2193 3439 
Q 2478 3584 2822 3584 
Q 3428 3584 3742 3212 
Q 4056 2841 4056 2131 
z
" transform="scale(0.015625)"/>
      </defs>
      <use xlink:href="#DejaVuSans-Bold-52"/>
      <use xlink:href="#DejaVuSans-Bold-65" transform="translate(77.001953 0)"/>
      <use xlink:href="#DejaVuSans-Bold-76" transform="translate(144.824219 0)"/>
      <use xlink:href="#DejaVuSans-Bold-69" transform="translate(210.009766 0)"/>
      <use xlink:href="#DejaVuSans-Bold-65" transform="translate(244.287109 0)"/>
      <use xlink:href="#DejaVuSans-Bold-77" transform="translate(312.109375 0)"/>
      <use xlink:href="#DejaVuSans-Bold-73" transform="translate(404.492188 0)"/>
      <use xlink:href="#DejaVuSans-Bold-20" transform="translate(464.013672 0)"/>
      <use xlink:href="#DejaVuSans-Bold-70" transform="translate(498.828125 0)"/>
      <use xlink:href="#DejaVuSans-Bold-65" transform="translate(570.410156 0)"/>
      <use xlink:href="#DejaVuSans-Bold-72" transform="translate(638.232422 0)"/>
      <use xlink:href="#DejaVuSans-Bold-20" transform="translate(687.548828 0)"/>
      <use xlink:href="#DejaVuSans-Bold-4d" transform="translate(722.363281 0)"/>
      <use xlink:href="#DejaVuSans-Bold-6f" transform="translate(821.875 0)"/>
      <use xlink:href="#DejaVuSans-Bold-6e" transform="translate(890.576172 0)"/>
      <use xlink:href="#DejaVuSans-Bold-74" transform="translate(961.767578 0)"/>
      <use xlink:href="#DejaVuSans-Bold-68" transform="translate(1009.570312 0)"/>
     </g>
    </g>
   </g>
   <g id="matplotlib.axis_2">
    <g id="ytick_1">
     <g id="line2d_8">
      <defs>
       <path id="m537f590a25" d="M 0 0 
L -3.5 0 
" style="stroke: #000000; stroke-width: 0.8"/>
      </defs>
      <g>
       <use xlink:href="#m537f590a25" x="90" y="68.472" style="stroke: #000000; stroke-width: 0.8"/>
      </g>
     </g>
     <g id="text_9">
      <!-- Enjoy great views of the City in our Deluxe Room! -->
      <g transform="translate(-166.295313 72.271219) scale(0.1 -0.1)">
       <defs>
        <path id="DejaVuSans-45" d="M 628 4666 
L 3578 4666 
L 3578 4134 
L 1259 4134 
L 1259 2753 
L 3481 2753 
L 3481 2222 
L 1259 2222 
L 1259 531 
L 3634 531 
L 3634 0 
L 628 0 
L 628 4666 
z
" transform="scale(0.015625)"/>
        <path id="DejaVuSans-6e" d="M 3513 2113 
L 3513 0 
L 2938 0 
L 2938 2094 
Q 2938 2591 2744 2837 
Q 2550 3084 2163 3084 
Q 1697 3084 1428 2787 
Q 1159 2491 1159 1978 
L 1159 0 
L 581 0 
L 581 3500 
L 1159 3500 
L 1159 2956 
Q 1366 3272 1645 3428 
Q 1925 3584 2291 3584 
Q 2894 3584 3203 3211 
Q 3513 2838 3513 2113 
z
" transform="scale(0.015625)"/>
        <path id="DejaVuSans-6a" d="M 603 3500 
L 1178 3500 
L 1178 -63 
Q 1178 -731 923 -1031 
Q 669 -1331 103 -1331 
L -116 -1331 
L -116 -844 
L 38 -844 
Q 366 -844 484 -692 
Q 603 -541 603 -63 
L 603 3500 
z
M 603 4863 
L 1178 4863 
L 1178 4134 
L 603 4134 
L 603 4863 
z
" transform="scale(0.015625)"/>
        <path id="DejaVuSans-6f" d="M 1959 3097 
Q 1497 3097 1228 2736 
Q 959 2375 959 1747 
Q 959 1119 1226 758 
Q 1494 397 1959 397 
Q 2419 397 2687 759 
Q 2956 1122 2956 1747 
Q 2956 2369 2687 2733 
Q 2419 3097 1959 3097 
z
M 1959 3584 
Q 2709 3584 3137 3096 
Q 3566 2609 3566 1747 
Q 3566 888 3137 398 
Q 2709 -91 1959 -91 
Q 1206 -91 779 398 
Q 353 888 353 1747 
Q 353 2609 779 3096 
Q 1206 3584 1959 3584 
z
" transform="scale(0.015625)"/>
        <path id="DejaVuSans-79" d="M 2059 -325 
Q 1816 -950 1584 -1140 
Q 1353 -1331 966 -1331 
L 506 -1331 
L 506 -850 
L 844 -850 
Q 1081 -850 1212 -737 
Q 1344 -625 1503 -206 
L 1606 56 
L 191 3500 
L 800 3500 
L 1894 763 
L 2988 3500 
L 3597 3500 
L 2059 -325 
z
" transform="scale(0.015625)"/>
        <path id="DejaVuSans-20" transform="scale(0.015625)"/>
        <path id="DejaVuSans-67" d="M 2906 1791 
Q 2906 2416 2648 2759 
Q 2391 3103 1925 3103 
Q 1463 3103 1205 2759 
Q 947 2416 947 1791 
Q 947 1169 1205 825 
Q 1463 481 1925 481 
Q 2391 481 2648 825 
Q 2906 1169 2906 1791 
z
M 3481 434 
Q 3481 -459 3084 -895 
Q 2688 -1331 1869 -1331 
Q 1566 -1331 1297 -1286 
Q 1028 -1241 775 -1147 
L 775 -588 
Q 1028 -725 1275 -790 
Q 1522 -856 1778 -856 
Q 2344 -856 2625 -561 
Q 2906 -266 2906 331 
L 2906 616 
Q 2728 306 2450 153 
Q 2172 0 1784 0 
Q 1141 0 747 490 
Q 353 981 353 1791 
Q 353 2603 747 3093 
Q 1141 3584 1784 3584 
Q 2172 3584 2450 3431 
Q 2728 3278 2906 2969 
L 2906 3500 
L 3481 3500 
L 3481 434 
z
" transform="scale(0.015625)"/>
        <path id="DejaVuSans-72" d="M 2631 2963 
Q 2534 3019 2420 3045 
Q 2306 3072 2169 3072 
Q 1681 3072 1420 2755 
Q 1159 2438 1159 1844 
L 1159 0 
L 581 0 
L 581 3500 
L 1159 3500 
L 1159 2956 
Q 1341 3275 1631 3429 
Q 1922 3584 2338 3584 
Q 2397 3584 2469 3576 
Q 2541 3569 2628 3553 
L 2631 2963 
z
" transform="scale(0.015625)"/>
        <path id="DejaVuSans-65" d="M 3597 1894 
L 3597 1613 
L 953 1613 
Q 991 1019 1311 708 
Q 1631 397 2203 397 
Q 2534 397 2845 478 
Q 3156 559 3463 722 
L 3463 178 
Q 3153 47 2828 -22 
Q 2503 -91 2169 -91 
Q 1331 -91 842 396 
Q 353 884 353 1716 
Q 353 2575 817 3079 
Q 1281 3584 2069 3584 
Q 2775 3584 3186 3129 
Q 3597 2675 3597 1894 
z
M 3022 2063 
Q 3016 2534 2758 2815 
Q 2500 3097 2075 3097 
Q 1594 3097 1305 2825 
Q 1016 2553 972 2059 
L 3022 2063 
z
" transform="scale(0.015625)"/>
        <path id="DejaVuSans-61" d="M 2194 1759 
Q 1497 1759 1228 1600 
Q 959 1441 959 1056 
Q 959 750 1161 570 
Q 1363 391 1709 391 
Q 2188 391 2477 730 
Q 2766 1069 2766 1631 
L 2766 1759 
L 2194 1759 
z
M 3341 1997 
L 3341 0 
L 2766 0 
L 2766 531 
Q 2569 213 2275 61 
Q 1981 -91 1556 -91 
Q 1019 -91 701 211 
Q 384 513 384 1019 
Q 384 1609 779 1909 
Q 1175 2209 1959 2209 
L 2766 2209 
L 2766 2266 
Q 2766 2663 2505 2880 
Q 2244 3097 1772 3097 
Q 1472 3097 1187 3025 
Q 903 2953 641 2809 
L 641 3341 
Q 956 3463 1253 3523 
Q 1550 3584 1831 3584 
Q 2591 3584 2966 3190 
Q 3341 2797 3341 1997 
z
" transform="scale(0.015625)"/>
        <path id="DejaVuSans-74" d="M 1172 4494 
L 1172 3500 
L 2356 3500 
L 2356 3053 
L 1172 3053 
L 1172 1153 
Q 1172 725 1289 603 
Q 1406 481 1766 481 
L 2356 481 
L 2356 0 
L 1766 0 
Q 1100 0 847 248 
Q 594 497 594 1153 
L 594 3053 
L 172 3053 
L 172 3500 
L 594 3500 
L 594 4494 
L 1172 4494 
z
" transform="scale(0.015625)"/>
        <path id="DejaVuSans-76" d="M 191 3500 
L 800 3500 
L 1894 563 
L 2988 3500 
L 3597 3500 
L 2284 0 
L 1503 0 
L 191 3500 
z
" transform="scale(0.015625)"/>
        <path id="DejaVuSans-69" d="M 603 3500 
L 1178 3500 
L 1178 0 
L 603 0 
L 603 3500 
z
M 603 4863 
L 1178 4863 
L 1178 4134 
L 603 4134 
L 603 4863 
z
" transform="scale(0.015625)"/>
        <path id="DejaVuSans-77" d="M 269 3500 
L 844 3500 
L 1563 769 
L 2278 3500 
L 2956 3500 
L 3675 769 
L 4391 3500 
L 4966 3500 
L 4050 0 
L 3372 0 
L 2619 2869 
L 1863 0 
L 1184 0 
L 269 3500 
z
" transform="scale(0.015625)"/>
        <path id="DejaVuSans-73" d="M 2834 3397 
L 2834 2853 
Q 2591 2978 2328 3040 
Q 2066 3103 1784 3103 
Q 1356 3103 1142 2972 
Q 928 2841 928 2578 
Q 928 2378 1081 2264 
Q 1234 2150 1697 2047 
L 1894 2003 
Q 2506 1872 2764 1633 
Q 3022 1394 3022 966 
Q 3022 478 2636 193 
Q 2250 -91 1575 -91 
Q 1294 -91 989 -36 
Q 684 19 347 128 
L 347 722 
Q 666 556 975 473 
Q 1284 391 1588 391 
Q 1994 391 2212 530 
Q 2431 669 2431 922 
Q 2431 1156 2273 1281 
Q 2116 1406 1581 1522 
L 1381 1569 
Q 847 1681 609 1914 
Q 372 2147 372 2553 
Q 372 3047 722 3315 
Q 1072 3584 1716 3584 
Q 2034 3584 2315 3537 
Q 2597 3491 2834 3397 
z
" transform="scale(0.015625)"/>
        <path id="DejaVuSans-66" d="M 2375 4863 
L 2375 4384 
L 1825 4384 
Q 1516 4384 1395 4259 
Q 1275 4134 1275 3809 
L 1275 3500 
L 2222 3500 
L 2222 3053 
L 1275 3053 
L 1275 0 
L 697 0 
L 697 3053 
L 147 3053 
L 147 3500 
L 697 3500 
L 697 3744 
Q 697 4328 969 4595 
Q 1241 4863 1831 4863 
L 2375 4863 
z
" transform="scale(0.015625)"/>
        <path id="DejaVuSans-68" d="M 3513 2113 
L 3513 0 
L 2938 0 
L 2938 2094 
Q 2938 2591 2744 2837 
Q 2550 3084 2163 3084 
Q 1697 3084 1428 2787 
Q 1159 2491 1159 1978 
L 1159 0 
L 581 0 
L 581 4863 
L 1159 4863 
L 1159 2956 
Q 1366 3272 1645 3428 
Q 1925 3584 2291 3584 
Q 2894 3584 3203 3211 
Q 3513 2838 3513 2113 
z
" transform="scale(0.015625)"/>
        <path id="DejaVuSans-43" d="M 4122 4306 
L 4122 3641 
Q 3803 3938 3442 4084 
Q 3081 4231 2675 4231 
Q 1875 4231 1450 3742 
Q 1025 3253 1025 2328 
Q 1025 1406 1450 917 
Q 1875 428 2675 428 
Q 3081 428 3442 575 
Q 3803 722 4122 1019 
L 4122 359 
Q 3791 134 3420 21 
Q 3050 -91 2638 -91 
Q 1578 -91 968 557 
Q 359 1206 359 2328 
Q 359 3453 968 4101 
Q 1578 4750 2638 4750 
Q 3056 4750 3426 4639 
Q 3797 4528 4122 4306 
z
" transform="scale(0.015625)"/>
        <path id="DejaVuSans-75" d="M 544 1381 
L 544 3500 
L 1119 3500 
L 1119 1403 
Q 1119 906 1312 657 
Q 1506 409 1894 409 
Q 2359 409 2629 706 
Q 2900 1003 2900 1516 
L 2900 3500 
L 3475 3500 
L 3475 0 
L 2900 0 
L 2900 538 
Q 2691 219 2414 64 
Q 2138 -91 1772 -91 
Q 1169 -91 856 284 
Q 544 659 544 1381 
z
M 1991 3584 
L 1991 3584 
z
" transform="scale(0.015625)"/>
        <path id="DejaVuSans-44" d="M 1259 4147 
L 1259 519 
L 2022 519 
Q 2988 519 3436 956 
Q 3884 1394 3884 2338 
Q 3884 3275 3436 3711 
Q 2988 4147 2022 4147 
L 1259 4147 
z
M 628 4666 
L 1925 4666 
Q 3281 4666 3915 4102 
Q 4550 3538 4550 2338 
Q 4550 1131 3912 565 
Q 3275 0 1925 0 
L 628 0 
L 628 4666 
z
" transform="scale(0.015625)"/>
        <path id="DejaVuSans-6c" d="M 603 4863 
L 1178 4863 
L 1178 0 
L 603 0 
L 603 4863 
z
" transform="scale(0.015625)"/>
        <path id="DejaVuSans-78" d="M 3513 3500 
L 2247 1797 
L 3578 0 
L 2900 0 
L 1881 1375 
L 863 0 
L 184 0 
L 1544 1831 
L 300 3500 
L 978 3500 
L 1906 2253 
L 2834 3500 
L 3513 3500 
z
" transform="scale(0.015625)"/>
        <path id="DejaVuSans-52" d="M 2841 2188 
Q 3044 2119 3236 1894 
Q 3428 1669 3622 1275 
L 4263 0 
L 3584 0 
L 2988 1197 
Q 2756 1666 2539 1819 
Q 2322 1972 1947 1972 
L 1259 1972 
L 1259 0 
L 628 0 
L 628 4666 
L 2053 4666 
Q 2853 4666 3247 4331 
Q 3641 3997 3641 3322 
Q 3641 2881 3436 2590 
Q 3231 2300 2841 2188 
z
M 1259 4147 
L 1259 2491 
L 2053 2491 
Q 2509 2491 2742 2702 
Q 2975 2913 2975 3322 
Q 2975 3731 2742 3939 
Q 2509 4147 2053 4147 
L 1259 4147 
z
" transform="scale(0.015625)"/>
        <path id="DejaVuSans-6d" d="M 3328 2828 
Q 3544 3216 3844 3400 
Q 4144 3584 4550 3584 
Q 5097 3584 5394 3201 
Q 5691 2819 5691 2113 
L 5691 0 
L 5113 0 
L 5113 2094 
Q 5113 2597 4934 2840 
Q 4756 3084 4391 3084 
Q 3944 3084 3684 2787 
Q 3425 2491 3425 1978 
L 3425 0 
L 2847 0 
L 2847 2094 
Q 2847 2600 2669 2842 
Q 2491 3084 2119 3084 
Q 1678 3084 1418 2786 
Q 1159 2488 1159 1978 
L 1159 0 
L 581 0 
L 581 3500 
L 1159 3500 
L 1159 2956 
Q 1356 3278 1631 3431 
Q 1906 3584 2284 3584 
Q 2666 3584 2933 3390 
Q 3200 3197 3328 2828 
z
" transform="scale(0.015625)"/>
        <path id="DejaVuSans-21" d="M 966 794 
L 1600 794 
L 1600 0 
L 966 0 
L 966 794 
z
M 966 4666 
L 1600 4666 
L 1600 2619 
L 1538 1503 
L 1031 1503 
L 966 2619 
L 966 4666 
z
" transform="scale(0.015625)"/>
       </defs>
       <use xlink:href="#DejaVuSans-45"/>
       <use xlink:href="#DejaVuSans-6e" transform="translate(63.183594 0)"/>
       <use xlink:href="#DejaVuSans-6a" transform="translate(126.5625 0)"/>
       <use xlink:href="#DejaVuSans-6f" transform="translate(154.345703 0)"/>
       <use xlink:href="#DejaVuSans-79" transform="translate(215.527344 0)"/>
       <use xlink:href="#DejaVuSans-20" transform="translate(274.707031 0)"/>
       <use xlink:href="#DejaVuSans-67" transform="translate(306.494141 0)"/>
       <use xlink:href="#DejaVuSans-72" transform="translate(369.970703 0)"/>
       <use xlink:href="#DejaVuSans-65" transform="translate(408.833984 0)"/>
       <use xlink:href="#DejaVuSans-61" transform="translate(470.357422 0)"/>
       <use xlink:href="#DejaVuSans-74" transform="translate(531.636719 0)"/>
       <use xlink:href="#DejaVuSans-20" transform="translate(570.845703 0)"/>
       <use xlink:href="#DejaVuSans-76" transform="translate(602.632812 0)"/>
       <use xlink:href="#DejaVuSans-69" transform="translate(661.8125 0)"/>
       <use xlink:href="#DejaVuSans-65" transform="translate(689.595703 0)"/>
       <use xlink:href="#DejaVuSans-77" transform="translate(751.119141 0)"/>
       <use xlink:href="#DejaVuSans-73" transform="translate(832.90625 0)"/>
       <use xlink:href="#DejaVuSans-20" transform="translate(885.005859 0)"/>
       <use xlink:href="#DejaVuSans-6f" transform="translate(916.792969 0)"/>
       <use xlink:href="#DejaVuSans-66" transform="translate(977.974609 0)"/>
       <use xlink:href="#DejaVuSans-20" transform="translate(1013.179688 0)"/>
       <use xlink:href="#DejaVuSans-74" transform="translate(1044.966797 0)"/>
       <use xlink:href="#DejaVuSans-68" transform="translate(1084.175781 0)"/>
       <use xlink:href="#DejaVuSans-65" transform="translate(1147.554688 0)"/>
       <use xlink:href="#DejaVuSans-20" transform="translate(1209.078125 0)"/>
       <use xlink:href="#DejaVuSans-43" transform="translate(1240.865234 0)"/>
       <use xlink:href="#DejaVuSans-69" transform="translate(1310.689453 0)"/>
       <use xlink:href="#DejaVuSans-74" transform="translate(1338.472656 0)"/>
       <use xlink:href="#DejaVuSans-79" transform="translate(1377.681641 0)"/>
       <use xlink:href="#DejaVuSans-20" transform="translate(1436.861328 0)"/>
       <use xlink:href="#DejaVuSans-69" transform="translate(1468.648438 0)"/>
       <use xlink:href="#DejaVuSans-6e" transform="translate(1496.431641 0)"/>
       <use xlink:href="#DejaVuSans-20" transform="translate(1559.810547 0)"/>
       <use xlink:href="#DejaVuSans-6f" transform="translate(1591.597656 0)"/>
       <use xlink:href="#DejaVuSans-75" transform="translate(1652.779297 0)"/>
       <use xlink:href="#DejaVuSans-72" transform="translate(1716.158203 0)"/>
       <use xlink:href="#DejaVuSans-20" transform="translate(1757.271484 0)"/>
       <use xlink:href="#DejaVuSans-44" transform="translate(1789.058594 0)"/>
       <use xlink:href="#DejaVuSans-65" transform="translate(1866.060547 0)"/>
       <use xlink:href="#DejaVuSans-6c" transform="translate(1927.583984 0)"/>
       <use xlink:href="#DejaVuSans-75" transform="translate(1955.367188 0)"/>
       <use xlink:href="#DejaVuSans-78" transform="translate(2018.746094 0)"/>
       <use xlink:href="#DejaVuSans-65" transform="translate(2074.800781 0)"/>
       <use xlink:href="#DejaVuSans-20" transform="translate(2136.324219 0)"/>
       <use xlink:href="#DejaVuSans-52" transform="translate(2168.111328 0)"/>
       <use xlink:href="#DejaVuSans-6f" transform="translate(2233.09375 0)"/>
       <use xlink:href="#DejaVuSans-6f" transform="translate(2294.275391 0)"/>
       <use xlink:href="#DejaVuSans-6d" transform="translate(2355.457031 0)"/>
       <use xlink:href="#DejaVuSans-21" transform="translate(2452.869141 0)"/>
      </g>
     </g>
    </g>
    <g id="ytick_2">
     <g id="line2d_9">
      <g>
       <use xlink:href="#m537f590a25" x="90" y="101.736" style="stroke: #000000; stroke-width: 0.8"/>
      </g>
     </g>
     <g id="text_10">
      <!-- Great Room in the heart of Times Square! -->
      <g transform="translate(-126.2625 105.535219) scale(0.1 -0.1)">
       <defs>
        <path id="DejaVuSans-47" d="M 3809 666 
L 3809 1919 
L 2778 1919 
L 2778 2438 
L 4434 2438 
L 4434 434 
Q 4069 175 3628 42 
Q 3188 -91 2688 -91 
Q 1594 -91 976 548 
Q 359 1188 359 2328 
Q 359 3472 976 4111 
Q 1594 4750 2688 4750 
Q 3144 4750 3555 4637 
Q 3966 4525 4313 4306 
L 4313 3634 
Q 3963 3931 3569 4081 
Q 3175 4231 2741 4231 
Q 1884 4231 1454 3753 
Q 1025 3275 1025 2328 
Q 1025 1384 1454 906 
Q 1884 428 2741 428 
Q 3075 428 3337 486 
Q 3600 544 3809 666 
z
" transform="scale(0.015625)"/>
        <path id="DejaVuSans-54" d="M -19 4666 
L 3928 4666 
L 3928 4134 
L 2272 4134 
L 2272 0 
L 1638 0 
L 1638 4134 
L -19 4134 
L -19 4666 
z
" transform="scale(0.015625)"/>
        <path id="DejaVuSans-53" d="M 3425 4513 
L 3425 3897 
Q 3066 4069 2747 4153 
Q 2428 4238 2131 4238 
Q 1616 4238 1336 4038 
Q 1056 3838 1056 3469 
Q 1056 3159 1242 3001 
Q 1428 2844 1947 2747 
L 2328 2669 
Q 3034 2534 3370 2195 
Q 3706 1856 3706 1288 
Q 3706 609 3251 259 
Q 2797 -91 1919 -91 
Q 1588 -91 1214 -16 
Q 841 59 441 206 
L 441 856 
Q 825 641 1194 531 
Q 1563 422 1919 422 
Q 2459 422 2753 634 
Q 3047 847 3047 1241 
Q 3047 1584 2836 1778 
Q 2625 1972 2144 2069 
L 1759 2144 
Q 1053 2284 737 2584 
Q 422 2884 422 3419 
Q 422 4038 858 4394 
Q 1294 4750 2059 4750 
Q 2388 4750 2728 4690 
Q 3069 4631 3425 4513 
z
" transform="scale(0.015625)"/>
        <path id="DejaVuSans-71" d="M 947 1747 
Q 947 1113 1208 752 
Q 1469 391 1925 391 
Q 2381 391 2643 752 
Q 2906 1113 2906 1747 
Q 2906 2381 2643 2742 
Q 2381 3103 1925 3103 
Q 1469 3103 1208 2742 
Q 947 2381 947 1747 
z
M 2906 525 
Q 2725 213 2448 61 
Q 2172 -91 1784 -91 
Q 1150 -91 751 415 
Q 353 922 353 1747 
Q 353 2572 751 3078 
Q 1150 3584 1784 3584 
Q 2172 3584 2448 3432 
Q 2725 3281 2906 2969 
L 2906 3500 
L 3481 3500 
L 3481 -1331 
L 2906 -1331 
L 2906 525 
z
" transform="scale(0.015625)"/>
       </defs>
       <use xlink:href="#DejaVuSans-47"/>
       <use xlink:href="#DejaVuSans-72" transform="translate(77.490234 0)"/>
       <use xlink:href="#DejaVuSans-65" transform="translate(116.353516 0)"/>
       <use xlink:href="#DejaVuSans-61" transform="translate(177.876953 0)"/>
       <use xlink:href="#DejaVuSans-74" transform="translate(239.15625 0)"/>
       <use xlink:href="#DejaVuSans-20" transform="translate(278.365234 0)"/>
       <use xlink:href="#DejaVuSans-52" transform="translate(310.152344 0)"/>
       <use xlink:href="#DejaVuSans-6f" transform="translate(375.134766 0)"/>
       <use xlink:href="#DejaVuSans-6f" transform="translate(436.316406 0)"/>
       <use xlink:href="#DejaVuSans-6d" transform="translate(497.498047 0)"/>
       <use xlink:href="#DejaVuSans-20" transform="translate(594.910156 0)"/>
       <use xlink:href="#DejaVuSans-69" transform="translate(626.697266 0)"/>
       <use xlink:href="#DejaVuSans-6e" transform="translate(654.480469 0)"/>
       <use xlink:href="#DejaVuSans-20" transform="translate(717.859375 0)"/>
       <use xlink:href="#DejaVuSans-74" transform="translate(749.646484 0)"/>
       <use xlink:href="#DejaVuSans-68" transform="translate(788.855469 0)"/>
       <use xlink:href="#DejaVuSans-65" transform="translate(852.234375 0)"/>
       <use xlink:href="#DejaVuSans-20" transform="translate(913.757812 0)"/>
       <use xlink:href="#DejaVuSans-68" transform="translate(945.544922 0)"/>
       <use xlink:href="#DejaVuSans-65" transform="translate(1008.923828 0)"/>
       <use xlink:href="#DejaVuSans-61" transform="translate(1070.447266 0)"/>
       <use xlink:href="#DejaVuSans-72" transform="translate(1131.726562 0)"/>
       <use xlink:href="#DejaVuSans-74" transform="translate(1172.839844 0)"/>
       <use xlink:href="#DejaVuSans-20" transform="translate(1212.048828 0)"/>
       <use xlink:href="#DejaVuSans-6f" transform="translate(1243.835938 0)"/>
       <use xlink:href="#DejaVuSans-66" transform="translate(1305.017578 0)"/>
       <use xlink:href="#DejaVuSans-20" transform="translate(1340.222656 0)"/>
       <use xlink:href="#DejaVuSans-54" transform="translate(1372.009766 0)"/>
       <use xlink:href="#DejaVuSans-69" transform="translate(1429.96875 0)"/>
       <use xlink:href="#DejaVuSans-6d" transform="translate(1457.751953 0)"/>
       <use xlink:href="#DejaVuSans-65" transform="translate(1555.164062 0)"/>
       <use xlink:href="#DejaVuSans-73" transform="translate(1616.6875 0)"/>
       <use xlink:href="#DejaVuSans-20" transform="translate(1668.787109 0)"/>
       <use xlink:href="#DejaVuSans-53" transform="translate(1700.574219 0)"/>
       <use xlink:href="#DejaVuSans-71" transform="translate(1764.050781 0)"/>
       <use xlink:href="#DejaVuSans-75" transform="translate(1827.527344 0)"/>
       <use xlink:href="#DejaVuSans-61" transform="translate(1890.90625 0)"/>
       <use xlink:href="#DejaVuSans-72" transform="translate(1952.185547 0)"/>
       <use xlink:href="#DejaVuSans-65" transform="translate(1991.048828 0)"/>
       <use xlink:href="#DejaVuSans-21" transform="translate(2052.572266 0)"/>
      </g>
     </g>
    </g>
    <g id="ytick_3">
     <g id="line2d_10">
      <g>
       <use xlink:href="#m537f590a25" x="90" y="135" style="stroke: #000000; stroke-width: 0.8"/>
      </g>
     </g>
     <g id="text_11">
      <!-- Lou's Palace-So much for so little -->
      <g transform="translate(-82.3625 138.799219) scale(0.1 -0.1)">
       <defs>
        <path id="DejaVuSans-4c" d="M 628 4666 
L 1259 4666 
L 1259 531 
L 3531 531 
L 3531 0 
L 628 0 
L 628 4666 
z
" transform="scale(0.015625)"/>
        <path id="DejaVuSans-27" d="M 1147 4666 
L 1147 2931 
L 616 2931 
L 616 4666 
L 1147 4666 
z
" transform="scale(0.015625)"/>
        <path id="DejaVuSans-50" d="M 1259 4147 
L 1259 2394 
L 2053 2394 
Q 2494 2394 2734 2622 
Q 2975 2850 2975 3272 
Q 2975 3691 2734 3919 
Q 2494 4147 2053 4147 
L 1259 4147 
z
M 628 4666 
L 2053 4666 
Q 2838 4666 3239 4311 
Q 3641 3956 3641 3272 
Q 3641 2581 3239 2228 
Q 2838 1875 2053 1875 
L 1259 1875 
L 1259 0 
L 628 0 
L 628 4666 
z
" transform="scale(0.015625)"/>
        <path id="DejaVuSans-63" d="M 3122 3366 
L 3122 2828 
Q 2878 2963 2633 3030 
Q 2388 3097 2138 3097 
Q 1578 3097 1268 2742 
Q 959 2388 959 1747 
Q 959 1106 1268 751 
Q 1578 397 2138 397 
Q 2388 397 2633 464 
Q 2878 531 3122 666 
L 3122 134 
Q 2881 22 2623 -34 
Q 2366 -91 2075 -91 
Q 1284 -91 818 406 
Q 353 903 353 1747 
Q 353 2603 823 3093 
Q 1294 3584 2113 3584 
Q 2378 3584 2631 3529 
Q 2884 3475 3122 3366 
z
" transform="scale(0.015625)"/>
        <path id="DejaVuSans-2d" d="M 313 2009 
L 1997 2009 
L 1997 1497 
L 313 1497 
L 313 2009 
z
" transform="scale(0.015625)"/>
       </defs>
       <use xlink:href="#DejaVuSans-4c"/>
       <use xlink:href="#DejaVuSans-6f" transform="translate(53.962891 0)"/>
       <use xlink:href="#DejaVuSans-75" transform="translate(115.144531 0)"/>
       <use xlink:href="#DejaVuSans-27" transform="translate(178.523438 0)"/>
       <use xlink:href="#DejaVuSans-73" transform="translate(206.013672 0)"/>
       <use xlink:href="#DejaVuSans-20" transform="translate(258.113281 0)"/>
       <use xlink:href="#DejaVuSans-50" transform="translate(289.900391 0)"/>
       <use xlink:href="#DejaVuSans-61" transform="translate(345.703125 0)"/>
       <use xlink:href="#DejaVuSans-6c" transform="translate(406.982422 0)"/>
       <use xlink:href="#DejaVuSans-61" transform="translate(434.765625 0)"/>
       <use xlink:href="#DejaVuSans-63" transform="translate(496.044922 0)"/>
       <use xlink:href="#DejaVuSans-65" transform="translate(551.025391 0)"/>
       <use xlink:href="#DejaVuSans-2d" transform="translate(612.548828 0)"/>
       <use xlink:href="#DejaVuSans-53" transform="translate(648.632812 0)"/>
       <use xlink:href="#DejaVuSans-6f" transform="translate(712.109375 0)"/>
       <use xlink:href="#DejaVuSans-20" transform="translate(773.291016 0)"/>
       <use xlink:href="#DejaVuSans-6d" transform="translate(805.078125 0)"/>
       <use xlink:href="#DejaVuSans-75" transform="translate(902.490234 0)"/>
       <use xlink:href="#DejaVuSans-63" transform="translate(965.869141 0)"/>
       <use xlink:href="#DejaVuSans-68" transform="translate(1020.849609 0)"/>
       <use xlink:href="#DejaVuSans-20" transform="translate(1084.228516 0)"/>
       <use xlink:href="#DejaVuSans-66" transform="translate(1116.015625 0)"/>
       <use xlink:href="#DejaVuSans-6f" transform="translate(1151.220703 0)"/>
       <use xlink:href="#DejaVuSans-72" transform="translate(1212.402344 0)"/>
       <use xlink:href="#DejaVuSans-20" transform="translate(1253.515625 0)"/>
       <use xlink:href="#DejaVuSans-73" transform="translate(1285.302734 0)"/>
       <use xlink:href="#DejaVuSans-6f" transform="translate(1337.402344 0)"/>
       <use xlink:href="#DejaVuSans-20" transform="translate(1398.583984 0)"/>
       <use xlink:href="#DejaVuSans-6c" transform="translate(1430.371094 0)"/>
       <use xlink:href="#DejaVuSans-69" transform="translate(1458.154297 0)"/>
       <use xlink:href="#DejaVuSans-74" transform="translate(1485.9375 0)"/>
       <use xlink:href="#DejaVuSans-74" transform="translate(1525.146484 0)"/>
       <use xlink:href="#DejaVuSans-6c" transform="translate(1564.355469 0)"/>
       <use xlink:href="#DejaVuSans-65" transform="translate(1592.138672 0)"/>
      </g>
     </g>
    </g>
    <g id="ytick_4">
     <g id="line2d_11">
      <g>
       <use xlink:href="#m537f590a25" x="90" y="168.264" style="stroke: #000000; stroke-width: 0.8"/>
      </g>
     </g>
     <g id="text_12">
      <!-- JFK Comfort.5 Mins from JFK Private Bedroom &amp; Bath -->
      <g transform="translate(-180.351562 172.063219) scale(0.1 -0.1)">
       <defs>
        <path id="DejaVuSans-4a" d="M 628 4666 
L 1259 4666 
L 1259 325 
Q 1259 -519 939 -900 
Q 619 -1281 -91 -1281 
L -331 -1281 
L -331 -750 
L -134 -750 
Q 284 -750 456 -515 
Q 628 -281 628 325 
L 628 4666 
z
" transform="scale(0.015625)"/>
        <path id="DejaVuSans-46" d="M 628 4666 
L 3309 4666 
L 3309 4134 
L 1259 4134 
L 1259 2759 
L 3109 2759 
L 3109 2228 
L 1259 2228 
L 1259 0 
L 628 0 
L 628 4666 
z
" transform="scale(0.015625)"/>
        <path id="DejaVuSans-4b" d="M 628 4666 
L 1259 4666 
L 1259 2694 
L 3353 4666 
L 4166 4666 
L 1850 2491 
L 4331 0 
L 3500 0 
L 1259 2247 
L 1259 0 
L 628 0 
L 628 4666 
z
" transform="scale(0.015625)"/>
        <path id="DejaVuSans-2e" d="M 684 794 
L 1344 794 
L 1344 0 
L 684 0 
L 684 794 
z
" transform="scale(0.015625)"/>
        <path id="DejaVuSans-4d" d="M 628 4666 
L 1569 4666 
L 2759 1491 
L 3956 4666 
L 4897 4666 
L 4897 0 
L 4281 0 
L 4281 4097 
L 3078 897 
L 2444 897 
L 1241 4097 
L 1241 0 
L 628 0 
L 628 4666 
z
" transform="scale(0.015625)"/>
        <path id="DejaVuSans-42" d="M 1259 2228 
L 1259 519 
L 2272 519 
Q 2781 519 3026 730 
Q 3272 941 3272 1375 
Q 3272 1813 3026 2020 
Q 2781 2228 2272 2228 
L 1259 2228 
z
M 1259 4147 
L 1259 2741 
L 2194 2741 
Q 2656 2741 2882 2914 
Q 3109 3088 3109 3444 
Q 3109 3797 2882 3972 
Q 2656 4147 2194 4147 
L 1259 4147 
z
M 628 4666 
L 2241 4666 
Q 2963 4666 3353 4366 
Q 3744 4066 3744 3513 
Q 3744 3084 3544 2831 
Q 3344 2578 2956 2516 
Q 3422 2416 3680 2098 
Q 3938 1781 3938 1306 
Q 3938 681 3513 340 
Q 3088 0 2303 0 
L 628 0 
L 628 4666 
z
" transform="scale(0.015625)"/>
        <path id="DejaVuSans-64" d="M 2906 2969 
L 2906 4863 
L 3481 4863 
L 3481 0 
L 2906 0 
L 2906 525 
Q 2725 213 2448 61 
Q 2172 -91 1784 -91 
Q 1150 -91 751 415 
Q 353 922 353 1747 
Q 353 2572 751 3078 
Q 1150 3584 1784 3584 
Q 2172 3584 2448 3432 
Q 2725 3281 2906 2969 
z
M 947 1747 
Q 947 1113 1208 752 
Q 1469 391 1925 391 
Q 2381 391 2643 752 
Q 2906 1113 2906 1747 
Q 2906 2381 2643 2742 
Q 2381 3103 1925 3103 
Q 1469 3103 1208 2742 
Q 947 2381 947 1747 
z
" transform="scale(0.015625)"/>
        <path id="DejaVuSans-26" d="M 1556 2509 
Q 1272 2256 1139 2004 
Q 1006 1753 1006 1478 
Q 1006 1022 1337 719 
Q 1669 416 2169 416 
Q 2466 416 2725 514 
Q 2984 613 3213 813 
L 1556 2509 
z
M 1997 2859 
L 3584 1234 
Q 3769 1513 3872 1830 
Q 3975 2147 3994 2503 
L 4575 2503 
Q 4538 2091 4375 1687 
Q 4213 1284 3922 891 
L 4794 0 
L 4006 0 
L 3559 459 
Q 3234 181 2878 45 
Q 2522 -91 2113 -91 
Q 1359 -91 881 339 
Q 403 769 403 1441 
Q 403 1841 612 2192 
Q 822 2544 1241 2853 
Q 1091 3050 1012 3245 
Q 934 3441 934 3628 
Q 934 4134 1281 4442 
Q 1628 4750 2203 4750 
Q 2463 4750 2720 4694 
Q 2978 4638 3244 4525 
L 3244 3956 
Q 2972 4103 2725 4179 
Q 2478 4256 2266 4256 
Q 1938 4256 1733 4082 
Q 1528 3909 1528 3634 
Q 1528 3475 1620 3314 
Q 1713 3153 1997 2859 
z
" transform="scale(0.015625)"/>
       </defs>
       <use xlink:href="#DejaVuSans-4a"/>
       <use xlink:href="#DejaVuSans-46" transform="translate(29.492188 0)"/>
       <use xlink:href="#DejaVuSans-4b" transform="translate(87.011719 0)"/>
       <use xlink:href="#DejaVuSans-20" transform="translate(152.587891 0)"/>
       <use xlink:href="#DejaVuSans-43" transform="translate(184.375 0)"/>
       <use xlink:href="#DejaVuSans-6f" transform="translate(254.199219 0)"/>
       <use xlink:href="#DejaVuSans-6d" transform="translate(315.380859 0)"/>
       <use xlink:href="#DejaVuSans-66" transform="translate(412.792969 0)"/>
       <use xlink:href="#DejaVuSans-6f" transform="translate(447.998047 0)"/>
       <use xlink:href="#DejaVuSans-72" transform="translate(509.179688 0)"/>
       <use xlink:href="#DejaVuSans-74" transform="translate(550.292969 0)"/>
       <use xlink:href="#DejaVuSans-2e" transform="translate(589.501953 0)"/>
       <use xlink:href="#DejaVuSans-35" transform="translate(621.289062 0)"/>
       <use xlink:href="#DejaVuSans-20" transform="translate(684.912109 0)"/>
       <use xlink:href="#DejaVuSans-4d" transform="translate(716.699219 0)"/>
       <use xlink:href="#DejaVuSans-69" transform="translate(802.978516 0)"/>
       <use xlink:href="#DejaVuSans-6e" transform="translate(830.761719 0)"/>
       <use xlink:href="#DejaVuSans-73" transform="translate(894.140625 0)"/>
       <use xlink:href="#DejaVuSans-20" transform="translate(946.240234 0)"/>
       <use xlink:href="#DejaVuSans-66" transform="translate(978.027344 0)"/>
       <use xlink:href="#DejaVuSans-72" transform="translate(1013.232422 0)"/>
       <use xlink:href="#DejaVuSans-6f" transform="translate(1052.095703 0)"/>
       <use xlink:href="#DejaVuSans-6d" transform="translate(1113.277344 0)"/>
       <use xlink:href="#DejaVuSans-20" transform="translate(1210.689453 0)"/>
       <use xlink:href="#DejaVuSans-4a" transform="translate(1242.476562 0)"/>
       <use xlink:href="#DejaVuSans-46" transform="translate(1271.96875 0)"/>
       <use xlink:href="#DejaVuSans-4b" transform="translate(1329.488281 0)"/>
       <use xlink:href="#DejaVuSans-20" transform="translate(1395.064453 0)"/>
       <use xlink:href="#DejaVuSans-50" transform="translate(1426.851562 0)"/>
       <use xlink:href="#DejaVuSans-72" transform="translate(1485.404297 0)"/>
       <use xlink:href="#DejaVuSans-69" transform="translate(1526.517578 0)"/>
       <use xlink:href="#DejaVuSans-76" transform="translate(1554.300781 0)"/>
       <use xlink:href="#DejaVuSans-61" transform="translate(1613.480469 0)"/>
       <use xlink:href="#DejaVuSans-74" transform="translate(1674.759766 0)"/>
       <use xlink:href="#DejaVuSans-65" transform="translate(1713.96875 0)"/>
       <use xlink:href="#DejaVuSans-20" transform="translate(1775.492188 0)"/>
       <use xlink:href="#DejaVuSans-42" transform="translate(1807.279297 0)"/>
       <use xlink:href="#DejaVuSans-65" transform="translate(1875.882812 0)"/>
       <use xlink:href="#DejaVuSans-64" transform="translate(1937.40625 0)"/>
       <use xlink:href="#DejaVuSans-72" transform="translate(2000.882812 0)"/>
       <use xlink:href="#DejaVuSans-6f" transform="translate(2039.746094 0)"/>
       <use xlink:href="#DejaVuSans-6f" transform="translate(2100.927734 0)"/>
       <use xlink:href="#DejaVuSans-6d" transform="translate(2162.109375 0)"/>
       <use xlink:href="#DejaVuSans-20" transform="translate(2259.521484 0)"/>
       <use xlink:href="#DejaVuSans-26" transform="translate(2291.308594 0)"/>
       <use xlink:href="#DejaVuSans-20" transform="translate(2369.287109 0)"/>
       <use xlink:href="#DejaVuSans-42" transform="translate(2401.074219 0)"/>
       <use xlink:href="#DejaVuSans-61" transform="translate(2469.677734 0)"/>
       <use xlink:href="#DejaVuSans-74" transform="translate(2530.957031 0)"/>
       <use xlink:href="#DejaVuSans-68" transform="translate(2570.166016 0)"/>
      </g>
     </g>
    </g>
    <g id="ytick_5">
     <g id="line2d_12">
      <g>
       <use xlink:href="#m537f590a25" x="90" y="201.528" style="stroke: #000000; stroke-width: 0.8"/>
      </g>
     </g>
     <g id="text_13">
      <!-- JFK 2 Comfort 5 Mins from JFK Private Bedroom -->
      <g transform="translate(-152.490625 205.327219) scale(0.1 -0.1)">
       <use xlink:href="#DejaVuSans-4a"/>
       <use xlink:href="#DejaVuSans-46" transform="translate(29.492188 0)"/>
       <use xlink:href="#DejaVuSans-4b" transform="translate(87.011719 0)"/>
       <use xlink:href="#DejaVuSans-20" transform="translate(152.587891 0)"/>
       <use xlink:href="#DejaVuSans-32" transform="translate(184.375 0)"/>
       <use xlink:href="#DejaVuSans-20" transform="translate(247.998047 0)"/>
       <use xlink:href="#DejaVuSans-43" transform="translate(279.785156 0)"/>
       <use xlink:href="#DejaVuSans-6f" transform="translate(349.609375 0)"/>
       <use xlink:href="#DejaVuSans-6d" transform="translate(410.791016 0)"/>
       <use xlink:href="#DejaVuSans-66" transform="translate(508.203125 0)"/>
       <use xlink:href="#DejaVuSans-6f" transform="translate(543.408203 0)"/>
       <use xlink:href="#DejaVuSans-72" transform="translate(604.589844 0)"/>
       <use xlink:href="#DejaVuSans-74" transform="translate(645.703125 0)"/>
       <use xlink:href="#DejaVuSans-20" transform="translate(684.912109 0)"/>
       <use xlink:href="#DejaVuSans-35" transform="translate(716.699219 0)"/>
       <use xlink:href="#DejaVuSans-20" transform="translate(780.322266 0)"/>
       <use xlink:href="#DejaVuSans-4d" transform="translate(812.109375 0)"/>
       <use xlink:href="#DejaVuSans-69" transform="translate(898.388672 0)"/>
       <use xlink:href="#DejaVuSans-6e" transform="translate(926.171875 0)"/>
       <use xlink:href="#DejaVuSans-73" transform="translate(989.550781 0)"/>
       <use xlink:href="#DejaVuSans-20" transform="translate(1041.650391 0)"/>
       <use xlink:href="#DejaVuSans-66" transform="translate(1073.4375 0)"/>
       <use xlink:href="#DejaVuSans-72" transform="translate(1108.642578 0)"/>
       <use xlink:href="#DejaVuSans-6f" transform="translate(1147.505859 0)"/>
       <use xlink:href="#DejaVuSans-6d" transform="translate(1208.6875 0)"/>
       <use xlink:href="#DejaVuSans-20" transform="translate(1306.099609 0)"/>
       <use xlink:href="#DejaVuSans-4a" transform="translate(1337.886719 0)"/>
       <use xlink:href="#DejaVuSans-46" transform="translate(1367.378906 0)"/>
       <use xlink:href="#DejaVuSans-4b" transform="translate(1424.898438 0)"/>
       <use xlink:href="#DejaVuSans-20" transform="translate(1490.474609 0)"/>
       <use xlink:href="#DejaVuSans-50" transform="translate(1522.261719 0)"/>
       <use xlink:href="#DejaVuSans-72" transform="translate(1580.814453 0)"/>
       <use xlink:href="#DejaVuSans-69" transform="translate(1621.927734 0)"/>
       <use xlink:href="#DejaVuSans-76" transform="translate(1649.710938 0)"/>
       <use xlink:href="#DejaVuSans-61" transform="translate(1708.890625 0)"/>
       <use xlink:href="#DejaVuSans-74" transform="translate(1770.169922 0)"/>
       <use xlink:href="#DejaVuSans-65" transform="translate(1809.378906 0)"/>
       <use xlink:href="#DejaVuSans-20" transform="translate(1870.902344 0)"/>
       <use xlink:href="#DejaVuSans-42" transform="translate(1902.689453 0)"/>
       <use xlink:href="#DejaVuSans-65" transform="translate(1971.292969 0)"/>
       <use xlink:href="#DejaVuSans-64" transform="translate(2032.816406 0)"/>
       <use xlink:href="#DejaVuSans-72" transform="translate(2096.292969 0)"/>
       <use xlink:href="#DejaVuSans-6f" transform="translate(2135.15625 0)"/>
       <use xlink:href="#DejaVuSans-6f" transform="translate(2196.337891 0)"/>
       <use xlink:href="#DejaVuSans-6d" transform="translate(2257.519531 0)"/>
      </g>
     </g>
    </g>
    <g id="ytick_6">
     <g id="line2d_13">
      <g>
       <use xlink:href="#m537f590a25" x="90" y="234.792" style="stroke: #000000; stroke-width: 0.8"/>
      </g>
     </g>
     <g id="text_14">
      <!-- JFK 3 Comfort 5 Mins from JFK Private Bedroom -->
      <g transform="translate(-152.490625 238.591219) scale(0.1 -0.1)">
       <use xlink:href="#DejaVuSans-4a"/>
       <use xlink:href="#DejaVuSans-46" transform="translate(29.492188 0)"/>
       <use xlink:href="#DejaVuSans-4b" transform="translate(87.011719 0)"/>
       <use xlink:href="#DejaVuSans-20" transform="translate(152.587891 0)"/>
       <use xlink:href="#DejaVuSans-33" transform="translate(184.375 0)"/>
       <use xlink:href="#DejaVuSans-20" transform="translate(247.998047 0)"/>
       <use xlink:href="#DejaVuSans-43" transform="translate(279.785156 0)"/>
       <use xlink:href="#DejaVuSans-6f" transform="translate(349.609375 0)"/>
       <use xlink:href="#DejaVuSans-6d" transform="translate(410.791016 0)"/>
       <use xlink:href="#DejaVuSans-66" transform="translate(508.203125 0)"/>
       <use xlink:href="#DejaVuSans-6f" transform="translate(543.408203 0)"/>
       <use xlink:href="#DejaVuSans-72" transform="translate(604.589844 0)"/>
       <use xlink:href="#DejaVuSans-74" transform="translate(645.703125 0)"/>
       <use xlink:href="#DejaVuSans-20" transform="translate(684.912109 0)"/>
       <use xlink:href="#DejaVuSans-35" transform="translate(716.699219 0)"/>
       <use xlink:href="#DejaVuSans-20" transform="translate(780.322266 0)"/>
       <use xlink:href="#DejaVuSans-4d" transform="translate(812.109375 0)"/>
       <use xlink:href="#DejaVuSans-69" transform="translate(898.388672 0)"/>
       <use xlink:href="#DejaVuSans-6e" transform="translate(926.171875 0)"/>
       <use xlink:href="#DejaVuSans-73" transform="translate(989.550781 0)"/>
       <use xlink:href="#DejaVuSans-20" transform="translate(1041.650391 0)"/>
       <use xlink:href="#DejaVuSans-66" transform="translate(1073.4375 0)"/>
       <use xlink:href="#DejaVuSans-72" transform="translate(1108.642578 0)"/>
       <use xlink:href="#DejaVuSans-6f" transform="translate(1147.505859 0)"/>
       <use xlink:href="#DejaVuSans-6d" transform="translate(1208.6875 0)"/>
       <use xlink:href="#DejaVuSans-20" transform="translate(1306.099609 0)"/>
       <use xlink:href="#DejaVuSans-4a" transform="translate(1337.886719 0)"/>
       <use xlink:href="#DejaVuSans-46" transform="translate(1367.378906 0)"/>
       <use xlink:href="#DejaVuSans-4b" transform="translate(1424.898438 0)"/>
       <use xlink:href="#DejaVuSans-20" transform="translate(1490.474609 0)"/>
       <use xlink:href="#DejaVuSans-50" transform="translate(1522.261719 0)"/>
       <use xlink:href="#DejaVuSans-72" transform="translate(1580.814453 0)"/>
       <use xlink:href="#DejaVuSans-69" transform="translate(1621.927734 0)"/>
       <use xlink:href="#DejaVuSans-76" transform="translate(1649.710938 0)"/>
       <use xlink:href="#DejaVuSans-61" transform="translate(1708.890625 0)"/>
       <use xlink:href="#DejaVuSans-74" transform="translate(1770.169922 0)"/>
       <use xlink:href="#DejaVuSans-65" transform="translate(1809.378906 0)"/>
       <use xlink:href="#DejaVuSans-20" transform="translate(1870.902344 0)"/>
       <use xlink:href="#DejaVuSans-42" transform="translate(1902.689453 0)"/>
       <use xlink:href="#DejaVuSans-65" transform="translate(1971.292969 0)"/>
       <use xlink:href="#DejaVuSans-64" transform="translate(2032.816406 0)"/>
       <use xlink:href="#DejaVuSans-72" transform="translate(2096.292969 0)"/>
       <use xlink:href="#DejaVuSans-6f" transform="translate(2135.15625 0)"/>
       <use xlink:href="#DejaVuSans-6f" transform="translate(2196.337891 0)"/>
       <use xlink:href="#DejaVuSans-6d" transform="translate(2257.519531 0)"/>
      </g>
     </g>
    </g>
    <g id="ytick_7">
     <g id="line2d_14">
      <g>
       <use xlink:href="#m537f590a25" x="90" y="268.056" style="stroke: #000000; stroke-width: 0.8"/>
      </g>
     </g>
     <g id="text_15">
      <!-- Cozy Room Family Home LGA Airport NO CLEANING FEE -->
      <g transform="translate(-196.392188 271.855219) scale(0.1 -0.1)">
       <defs>
        <path id="DejaVuSans-7a" d="M 353 3500 
L 3084 3500 
L 3084 2975 
L 922 459 
L 3084 459 
L 3084 0 
L 275 0 
L 275 525 
L 2438 3041 
L 353 3041 
L 353 3500 
z
" transform="scale(0.015625)"/>
        <path id="DejaVuSans-48" d="M 628 4666 
L 1259 4666 
L 1259 2753 
L 3553 2753 
L 3553 4666 
L 4184 4666 
L 4184 0 
L 3553 0 
L 3553 2222 
L 1259 2222 
L 1259 0 
L 628 0 
L 628 4666 
z
" transform="scale(0.015625)"/>
        <path id="DejaVuSans-41" d="M 2188 4044 
L 1331 1722 
L 3047 1722 
L 2188 4044 
z
M 1831 4666 
L 2547 4666 
L 4325 0 
L 3669 0 
L 3244 1197 
L 1141 1197 
L 716 0 
L 50 0 
L 1831 4666 
z
" transform="scale(0.015625)"/>
        <path id="DejaVuSans-70" d="M 1159 525 
L 1159 -1331 
L 581 -1331 
L 581 3500 
L 1159 3500 
L 1159 2969 
Q 1341 3281 1617 3432 
Q 1894 3584 2278 3584 
Q 2916 3584 3314 3078 
Q 3713 2572 3713 1747 
Q 3713 922 3314 415 
Q 2916 -91 2278 -91 
Q 1894 -91 1617 61 
Q 1341 213 1159 525 
z
M 3116 1747 
Q 3116 2381 2855 2742 
Q 2594 3103 2138 3103 
Q 1681 3103 1420 2742 
Q 1159 2381 1159 1747 
Q 1159 1113 1420 752 
Q 1681 391 2138 391 
Q 2594 391 2855 752 
Q 3116 1113 3116 1747 
z
" transform="scale(0.015625)"/>
        <path id="DejaVuSans-4e" d="M 628 4666 
L 1478 4666 
L 3547 763 
L 3547 4666 
L 4159 4666 
L 4159 0 
L 3309 0 
L 1241 3903 
L 1241 0 
L 628 0 
L 628 4666 
z
" transform="scale(0.015625)"/>
        <path id="DejaVuSans-4f" d="M 2522 4238 
Q 1834 4238 1429 3725 
Q 1025 3213 1025 2328 
Q 1025 1447 1429 934 
Q 1834 422 2522 422 
Q 3209 422 3611 934 
Q 4013 1447 4013 2328 
Q 4013 3213 3611 3725 
Q 3209 4238 2522 4238 
z
M 2522 4750 
Q 3503 4750 4090 4092 
Q 4678 3434 4678 2328 
Q 4678 1225 4090 567 
Q 3503 -91 2522 -91 
Q 1538 -91 948 565 
Q 359 1222 359 2328 
Q 359 3434 948 4092 
Q 1538 4750 2522 4750 
z
" transform="scale(0.015625)"/>
        <path id="DejaVuSans-49" d="M 628 4666 
L 1259 4666 
L 1259 0 
L 628 0 
L 628 4666 
z
" transform="scale(0.015625)"/>
       </defs>
       <use xlink:href="#DejaVuSans-43"/>
       <use xlink:href="#DejaVuSans-6f" transform="translate(69.824219 0)"/>
       <use xlink:href="#DejaVuSans-7a" transform="translate(131.005859 0)"/>
       <use xlink:href="#DejaVuSans-79" transform="translate(183.496094 0)"/>
       <use xlink:href="#DejaVuSans-20" transform="translate(242.675781 0)"/>
       <use xlink:href="#DejaVuSans-52" transform="translate(274.462891 0)"/>
       <use xlink:href="#DejaVuSans-6f" transform="translate(339.445312 0)"/>
       <use xlink:href="#DejaVuSans-6f" transform="translate(400.626953 0)"/>
       <use xlink:href="#DejaVuSans-6d" transform="translate(461.808594 0)"/>
       <use xlink:href="#DejaVuSans-20" transform="translate(559.220703 0)"/>
       <use xlink:href="#DejaVuSans-46" transform="translate(591.007812 0)"/>
       <use xlink:href="#DejaVuSans-61" transform="translate(639.402344 0)"/>
       <use xlink:href="#DejaVuSans-6d" transform="translate(700.681641 0)"/>
       <use xlink:href="#DejaVuSans-69" transform="translate(798.09375 0)"/>
       <use xlink:href="#DejaVuSans-6c" transform="translate(825.876953 0)"/>
       <use xlink:href="#DejaVuSans-79" transform="translate(853.660156 0)"/>
       <use xlink:href="#DejaVuSans-20" transform="translate(912.839844 0)"/>
       <use xlink:href="#DejaVuSans-48" transform="translate(944.626953 0)"/>
       <use xlink:href="#DejaVuSans-6f" transform="translate(1019.822266 0)"/>
       <use xlink:href="#DejaVuSans-6d" transform="translate(1081.003906 0)"/>
       <use xlink:href="#DejaVuSans-65" transform="translate(1178.416016 0)"/>
       <use xlink:href="#DejaVuSans-20" transform="translate(1239.939453 0)"/>
       <use xlink:href="#DejaVuSans-4c" transform="translate(1271.726562 0)"/>
       <use xlink:href="#DejaVuSans-47" transform="translate(1327.439453 0)"/>
       <use xlink:href="#DejaVuSans-41" transform="translate(1404.929688 0)"/>
       <use xlink:href="#DejaVuSans-20" transform="translate(1473.337891 0)"/>
       <use xlink:href="#DejaVuSans-41" transform="translate(1505.125 0)"/>
       <use xlink:href="#DejaVuSans-69" transform="translate(1573.533203 0)"/>
       <use xlink:href="#DejaVuSans-72" transform="translate(1601.316406 0)"/>
       <use xlink:href="#DejaVuSans-70" transform="translate(1642.429688 0)"/>
       <use xlink:href="#DejaVuSans-6f" transform="translate(1705.90625 0)"/>
       <use xlink:href="#DejaVuSans-72" transform="translate(1767.087891 0)"/>
       <use xlink:href="#DejaVuSans-74" transform="translate(1808.201172 0)"/>
       <use xlink:href="#DejaVuSans-20" transform="translate(1847.410156 0)"/>
       <use xlink:href="#DejaVuSans-4e" transform="translate(1879.197266 0)"/>
       <use xlink:href="#DejaVuSans-4f" transform="translate(1954.001953 0)"/>
       <use xlink:href="#DejaVuSans-20" transform="translate(2032.712891 0)"/>
       <use xlink:href="#DejaVuSans-43" transform="translate(2064.5 0)"/>
       <use xlink:href="#DejaVuSans-4c" transform="translate(2134.324219 0)"/>
       <use xlink:href="#DejaVuSans-45" transform="translate(2190.037109 0)"/>
       <use xlink:href="#DejaVuSans-41" transform="translate(2253.220703 0)"/>
       <use xlink:href="#DejaVuSans-4e" transform="translate(2321.628906 0)"/>
       <use xlink:href="#DejaVuSans-49" transform="translate(2396.433594 0)"/>
       <use xlink:href="#DejaVuSans-4e" transform="translate(2425.925781 0)"/>
       <use xlink:href="#DejaVuSans-47" transform="translate(2500.730469 0)"/>
       <use xlink:href="#DejaVuSans-20" transform="translate(2578.220703 0)"/>
       <use xlink:href="#DejaVuSans-46" transform="translate(2610.007812 0)"/>
       <use xlink:href="#DejaVuSans-45" transform="translate(2667.527344 0)"/>
       <use xlink:href="#DejaVuSans-45" transform="translate(2730.710938 0)"/>
      </g>
     </g>
    </g>
    <g id="ytick_8">
     <g id="line2d_15">
      <g>
       <use xlink:href="#m537f590a25" x="90" y="301.32" style="stroke: #000000; stroke-width: 0.8"/>
      </g>
     </g>
     <g id="text_16">
      <!-- Cute Tiny Room Family Home by LGA NO CLEANING FEE -->
      <g transform="translate(-197.564063 305.119219) scale(0.1 -0.1)">
       <defs>
        <path id="DejaVuSans-62" d="M 3116 1747 
Q 3116 2381 2855 2742 
Q 2594 3103 2138 3103 
Q 1681 3103 1420 2742 
Q 1159 2381 1159 1747 
Q 1159 1113 1420 752 
Q 1681 391 2138 391 
Q 2594 391 2855 752 
Q 3116 1113 3116 1747 
z
M 1159 2969 
Q 1341 3281 1617 3432 
Q 1894 3584 2278 3584 
Q 2916 3584 3314 3078 
Q 3713 2572 3713 1747 
Q 3713 922 3314 415 
Q 2916 -91 2278 -91 
Q 1894 -91 1617 61 
Q 1341 213 1159 525 
L 1159 0 
L 581 0 
L 581 4863 
L 1159 4863 
L 1159 2969 
z
" transform="scale(0.015625)"/>
       </defs>
       <use xlink:href="#DejaVuSans-43"/>
       <use xlink:href="#DejaVuSans-75" transform="translate(69.824219 0)"/>
       <use xlink:href="#DejaVuSans-74" transform="translate(133.203125 0)"/>
       <use xlink:href="#DejaVuSans-65" transform="translate(172.412109 0)"/>
       <use xlink:href="#DejaVuSans-20" transform="translate(233.935547 0)"/>
       <use xlink:href="#DejaVuSans-54" transform="translate(265.722656 0)"/>
       <use xlink:href="#DejaVuSans-69" transform="translate(323.681641 0)"/>
       <use xlink:href="#DejaVuSans-6e" transform="translate(351.464844 0)"/>
       <use xlink:href="#DejaVuSans-79" transform="translate(414.84375 0)"/>
       <use xlink:href="#DejaVuSans-20" transform="translate(474.023438 0)"/>
       <use xlink:href="#DejaVuSans-52" transform="translate(505.810547 0)"/>
       <use xlink:href="#DejaVuSans-6f" transform="translate(570.792969 0)"/>
       <use xlink:href="#DejaVuSans-6f" transform="translate(631.974609 0)"/>
       <use xlink:href="#DejaVuSans-6d" transform="translate(693.15625 0)"/>
       <use xlink:href="#DejaVuSans-20" transform="translate(790.568359 0)"/>
       <use xlink:href="#DejaVuSans-46" transform="translate(822.355469 0)"/>
       <use xlink:href="#DejaVuSans-61" transform="translate(870.75 0)"/>
       <use xlink:href="#DejaVuSans-6d" transform="translate(932.029297 0)"/>
       <use xlink:href="#DejaVuSans-69" transform="translate(1029.441406 0)"/>
       <use xlink:href="#DejaVuSans-6c" transform="translate(1057.224609 0)"/>
       <use xlink:href="#DejaVuSans-79" transform="translate(1085.007812 0)"/>
       <use xlink:href="#DejaVuSans-20" transform="translate(1144.1875 0)"/>
       <use xlink:href="#DejaVuSans-48" transform="translate(1175.974609 0)"/>
       <use xlink:href="#DejaVuSans-6f" transform="translate(1251.169922 0)"/>
       <use xlink:href="#DejaVuSans-6d" transform="translate(1312.351562 0)"/>
       <use xlink:href="#DejaVuSans-65" transform="translate(1409.763672 0)"/>
       <use xlink:href="#DejaVuSans-20" transform="translate(1471.287109 0)"/>
       <use xlink:href="#DejaVuSans-62" transform="translate(1503.074219 0)"/>
       <use xlink:href="#DejaVuSans-79" transform="translate(1566.550781 0)"/>
       <use xlink:href="#DejaVuSans-20" transform="translate(1625.730469 0)"/>
       <use xlink:href="#DejaVuSans-4c" transform="translate(1657.517578 0)"/>
       <use xlink:href="#DejaVuSans-47" transform="translate(1713.230469 0)"/>
       <use xlink:href="#DejaVuSans-41" transform="translate(1790.720703 0)"/>
       <use xlink:href="#DejaVuSans-20" transform="translate(1859.128906 0)"/>
       <use xlink:href="#DejaVuSans-4e" transform="translate(1890.916016 0)"/>
       <use xlink:href="#DejaVuSans-4f" transform="translate(1965.720703 0)"/>
       <use xlink:href="#DejaVuSans-20" transform="translate(2044.431641 0)"/>
       <use xlink:href="#DejaVuSans-43" transform="translate(2076.21875 0)"/>
       <use xlink:href="#DejaVuSans-4c" transform="translate(2146.042969 0)"/>
       <use xlink:href="#DejaVuSans-45" transform="translate(2201.755859 0)"/>
       <use xlink:href="#DejaVuSans-41" transform="translate(2264.939453 0)"/>
       <use xlink:href="#DejaVuSans-4e" transform="translate(2333.347656 0)"/>
       <use xlink:href="#DejaVuSans-49" transform="translate(2408.152344 0)"/>
       <use xlink:href="#DejaVuSans-4e" transform="translate(2437.644531 0)"/>
       <use xlink:href="#DejaVuSans-47" transform="translate(2512.449219 0)"/>
       <use xlink:href="#DejaVuSans-20" transform="translate(2589.939453 0)"/>
       <use xlink:href="#DejaVuSans-46" transform="translate(2621.726562 0)"/>
       <use xlink:href="#DejaVuSans-45" transform="translate(2679.246094 0)"/>
       <use xlink:href="#DejaVuSans-45" transform="translate(2742.429688 0)"/>
      </g>
     </g>
    </g>
    <g id="ytick_9">
     <g id="line2d_16">
      <g>
       <use xlink:href="#m537f590a25" x="90" y="334.584" style="stroke: #000000; stroke-width: 0.8"/>
      </g>
     </g>
     <g id="text_17">
      <!-- For Heaven Cakes -->
      <g transform="translate(-17.1375 338.383219) scale(0.1 -0.1)">
       <defs>
        <path id="DejaVuSans-201c" d="M 1203 3128 
L 544 3128 
L 544 3669 
L 1056 4666 
L 1459 4666 
L 1203 3669 
L 1203 3128 
z
M 2484 3128 
L 1825 3128 
L 1825 3669 
L 2338 4666 
L 2741 4666 
L 2484 3669 
L 2484 3128 
z
" transform="scale(0.015625)"/>
        <path id="DejaVuSans-6b" d="M 581 4863 
L 1159 4863 
L 1159 1991 
L 2875 3500 
L 3609 3500 
L 1753 1863 
L 3688 0 
L 2938 0 
L 1159 1709 
L 1159 0 
L 581 0 
L 581 4863 
z
" transform="scale(0.015625)"/>
        <path id="DejaVuSans-201d" d="M 800 4666 
L 1459 4666 
L 1459 4128 
L 947 3128 
L 544 3128 
L 800 4128 
L 800 4666 
z
M 2081 4666 
L 2741 4666 
L 2741 4128 
L 2228 3128 
L 1825 3128 
L 2081 4128 
L 2081 4666 
z
" transform="scale(0.015625)"/>
       </defs>
       <use xlink:href="#DejaVuSans-201c"/>
       <use xlink:href="#DejaVuSans-46" transform="translate(48.681641 0)"/>
       <use xlink:href="#DejaVuSans-6f" transform="translate(102.576172 0)"/>
       <use xlink:href="#DejaVuSans-72" transform="translate(163.757812 0)"/>
       <use xlink:href="#DejaVuSans-20" transform="translate(204.871094 0)"/>
       <use xlink:href="#DejaVuSans-48" transform="translate(236.658203 0)"/>
       <use xlink:href="#DejaVuSans-65" transform="translate(311.853516 0)"/>
       <use xlink:href="#DejaVuSans-61" transform="translate(373.376953 0)"/>
       <use xlink:href="#DejaVuSans-76" transform="translate(434.65625 0)"/>
       <use xlink:href="#DejaVuSans-65" transform="translate(493.835938 0)"/>
       <use xlink:href="#DejaVuSans-6e" transform="translate(555.359375 0)"/>
       <use xlink:href="#DejaVuSans-20" transform="translate(618.738281 0)"/>
       <use xlink:href="#DejaVuSans-43" transform="translate(650.525391 0)"/>
       <use xlink:href="#DejaVuSans-61" transform="translate(720.349609 0)"/>
       <use xlink:href="#DejaVuSans-6b" transform="translate(781.628906 0)"/>
       <use xlink:href="#DejaVuSans-65" transform="translate(835.914062 0)"/>
       <use xlink:href="#DejaVuSans-73" transform="translate(897.4375 0)"/>
       <use xlink:href="#DejaVuSans-201d" transform="translate(949.537109 0)"/>
      </g>
     </g>
    </g>
    <g id="ytick_10">
     <g id="line2d_17">
      <g>
       <use xlink:href="#m537f590a25" x="90" y="367.848" style="stroke: #000000; stroke-width: 0.8"/>
      </g>
     </g>
     <g id="text_18">
      <!-- Studio Apartment 6 minutes from JFK Airport -->
      <g transform="translate(-141.0125 371.647219) scale(0.1 -0.1)">
       <use xlink:href="#DejaVuSans-53"/>
       <use xlink:href="#DejaVuSans-74" transform="translate(63.476562 0)"/>
       <use xlink:href="#DejaVuSans-75" transform="translate(102.685547 0)"/>
       <use xlink:href="#DejaVuSans-64" transform="translate(166.064453 0)"/>
       <use xlink:href="#DejaVuSans-69" transform="translate(229.541016 0)"/>
       <use xlink:href="#DejaVuSans-6f" transform="translate(257.324219 0)"/>
       <use xlink:href="#DejaVuSans-20" transform="translate(318.505859 0)"/>
       <use xlink:href="#DejaVuSans-41" transform="translate(350.292969 0)"/>
       <use xlink:href="#DejaVuSans-70" transform="translate(418.701172 0)"/>
       <use xlink:href="#DejaVuSans-61" transform="translate(482.177734 0)"/>
       <use xlink:href="#DejaVuSans-72" transform="translate(543.457031 0)"/>
       <use xlink:href="#DejaVuSans-74" transform="translate(584.570312 0)"/>
       <use xlink:href="#DejaVuSans-6d" transform="translate(623.779297 0)"/>
       <use xlink:href="#DejaVuSans-65" transform="translate(721.191406 0)"/>
       <use xlink:href="#DejaVuSans-6e" transform="translate(782.714844 0)"/>
       <use xlink:href="#DejaVuSans-74" transform="translate(846.09375 0)"/>
       <use xlink:href="#DejaVuSans-20" transform="translate(885.302734 0)"/>
       <use xlink:href="#DejaVuSans-36" transform="translate(917.089844 0)"/>
       <use xlink:href="#DejaVuSans-20" transform="translate(980.712891 0)"/>
       <use xlink:href="#DejaVuSans-6d" transform="translate(1012.5 0)"/>
       <use xlink:href="#DejaVuSans-69" transform="translate(1109.912109 0)"/>
       <use xlink:href="#DejaVuSans-6e" transform="translate(1137.695312 0)"/>
       <use xlink:href="#DejaVuSans-75" transform="translate(1201.074219 0)"/>
       <use xlink:href="#DejaVuSans-74" transform="translate(1264.453125 0)"/>
       <use xlink:href="#DejaVuSans-65" transform="translate(1303.662109 0)"/>
       <use xlink:href="#DejaVuSans-73" transform="translate(1365.185547 0)"/>
       <use xlink:href="#DejaVuSans-20" transform="translate(1417.285156 0)"/>
       <use xlink:href="#DejaVuSans-66" transform="translate(1449.072266 0)"/>
       <use xlink:href="#DejaVuSans-72" transform="translate(1484.277344 0)"/>
       <use xlink:href="#DejaVuSans-6f" transform="translate(1523.140625 0)"/>
       <use xlink:href="#DejaVuSans-6d" transform="translate(1584.322266 0)"/>
       <use xlink:href="#DejaVuSans-20" transform="translate(1681.734375 0)"/>
       <use xlink:href="#DejaVuSans-4a" transform="translate(1713.521484 0)"/>
       <use xlink:href="#DejaVuSans-46" transform="translate(1743.013672 0)"/>
       <use xlink:href="#DejaVuSans-4b" transform="translate(1800.533203 0)"/>
       <use xlink:href="#DejaVuSans-20" transform="translate(1866.109375 0)"/>
       <use xlink:href="#DejaVuSans-41" transform="translate(1897.896484 0)"/>
       <use xlink:href="#DejaVuSans-69" transform="translate(1966.304688 0)"/>
       <use xlink:href="#DejaVuSans-72" transform="translate(1994.087891 0)"/>
       <use xlink:href="#DejaVuSans-70" transform="translate(2035.201172 0)"/>
       <use xlink:href="#DejaVuSans-6f" transform="translate(2098.677734 0)"/>
       <use xlink:href="#DejaVuSans-72" transform="translate(2159.859375 0)"/>
       <use xlink:href="#DejaVuSans-74" transform="translate(2200.972656 0)"/>
      </g>
     </g>
    </g>
    <g id="text_19">
     <!-- Listing Name -->
     <g transform="translate(-203.721875 255.17875) rotate(-90) scale(0.1 -0.1)">
      <defs>
       <path id="DejaVuSans-Bold-4c" d="M 588 4666 
L 1791 4666 
L 1791 909 
L 3903 909 
L 3903 0 
L 588 0 
L 588 4666 
z
" transform="scale(0.015625)"/>
       <path id="DejaVuSans-Bold-67" d="M 2919 594 
Q 2688 288 2409 144 
Q 2131 0 1766 0 
Q 1125 0 706 504 
Q 288 1009 288 1791 
Q 288 2575 706 3076 
Q 1125 3578 1766 3578 
Q 2131 3578 2409 3434 
Q 2688 3291 2919 2981 
L 2919 3500 
L 4044 3500 
L 4044 353 
Q 4044 -491 3511 -936 
Q 2978 -1381 1966 -1381 
Q 1638 -1381 1331 -1331 
Q 1025 -1281 716 -1178 
L 716 -306 
Q 1009 -475 1290 -558 
Q 1572 -641 1856 -641 
Q 2406 -641 2662 -400 
Q 2919 -159 2919 353 
L 2919 594 
z
M 2181 2772 
Q 1834 2772 1640 2515 
Q 1447 2259 1447 1791 
Q 1447 1309 1634 1061 
Q 1822 813 2181 813 
Q 2531 813 2725 1069 
Q 2919 1325 2919 1791 
Q 2919 2259 2725 2515 
Q 2531 2772 2181 2772 
z
" transform="scale(0.015625)"/>
       <path id="DejaVuSans-Bold-4e" d="M 588 4666 
L 1931 4666 
L 3628 1466 
L 3628 4666 
L 4769 4666 
L 4769 0 
L 3425 0 
L 1728 3200 
L 1728 0 
L 588 0 
L 588 4666 
z
" transform="scale(0.015625)"/>
       <path id="DejaVuSans-Bold-61" d="M 2106 1575 
Q 1756 1575 1579 1456 
Q 1403 1338 1403 1106 
Q 1403 894 1545 773 
Q 1688 653 1941 653 
Q 2256 653 2472 879 
Q 2688 1106 2688 1447 
L 2688 1575 
L 2106 1575 
z
M 3816 1997 
L 3816 0 
L 2688 0 
L 2688 519 
Q 2463 200 2181 54 
Q 1900 -91 1497 -91 
Q 953 -91 614 226 
Q 275 544 275 1050 
Q 275 1666 698 1953 
Q 1122 2241 2028 2241 
L 2688 2241 
L 2688 2328 
Q 2688 2594 2478 2717 
Q 2269 2841 1825 2841 
Q 1466 2841 1156 2769 
Q 847 2697 581 2553 
L 581 3406 
Q 941 3494 1303 3539 
Q 1666 3584 2028 3584 
Q 2975 3584 3395 3211 
Q 3816 2838 3816 1997 
z
" transform="scale(0.015625)"/>
       <path id="DejaVuSans-Bold-6d" d="M 3781 2919 
Q 3994 3244 4286 3414 
Q 4578 3584 4928 3584 
Q 5531 3584 5847 3212 
Q 6163 2841 6163 2131 
L 6163 0 
L 5038 0 
L 5038 1825 
Q 5041 1866 5042 1909 
Q 5044 1953 5044 2034 
Q 5044 2406 4934 2573 
Q 4825 2741 4581 2741 
Q 4263 2741 4089 2478 
Q 3916 2216 3909 1719 
L 3909 0 
L 2784 0 
L 2784 1825 
Q 2784 2406 2684 2573 
Q 2584 2741 2328 2741 
Q 2006 2741 1831 2477 
Q 1656 2213 1656 1722 
L 1656 0 
L 531 0 
L 531 3500 
L 1656 3500 
L 1656 2988 
Q 1863 3284 2130 3434 
Q 2397 3584 2719 3584 
Q 3081 3584 3359 3409 
Q 3638 3234 3781 2919 
z
" transform="scale(0.015625)"/>
      </defs>
      <use xlink:href="#DejaVuSans-Bold-4c"/>
      <use xlink:href="#DejaVuSans-Bold-69" transform="translate(63.720703 0)"/>
      <use xlink:href="#DejaVuSans-Bold-73" transform="translate(97.998047 0)"/>
      <use xlink:href="#DejaVuSans-Bold-74" transform="translate(157.519531 0)"/>
      <use xlink:href="#DejaVuSans-Bold-69" transform="translate(205.322266 0)"/>
      <use xlink:href="#DejaVuSans-Bold-6e" transform="translate(239.599609 0)"/>
      <use xlink:href="#DejaVuSans-Bold-67" transform="translate(310.791016 0)"/>
      <use xlink:href="#DejaVuSans-Bold-20" transform="translate(382.373047 0)"/>
      <use xlink:href="#DejaVuSans-Bold-4e" transform="translate(417.1875 0)"/>
      <use xlink:href="#DejaVuSans-Bold-61" transform="translate(500.878906 0)"/>
      <use xlink:href="#DejaVuSans-Bold-6d" transform="translate(568.359375 0)"/>
      <use xlink:href="#DejaVuSans-Bold-65" transform="translate(672.558594 0)"/>
     </g>
    </g>
   </g>
   <g id="line2d_18">
    <path clip-path="url(#p7a7297ef73)" style="fill: none; stroke: #424242; stroke-width: 2.25; stroke-linecap: square"/>
   </g>
   <g id="line2d_19">
    <path clip-path="url(#p7a7297ef73)" style="fill: none; stroke: #424242; stroke-width: 2.25; stroke-linecap: square"/>
   </g>
   <g id="line2d_20">
    <path clip-path="url(#p7a7297ef73)" style="fill: none; stroke: #424242; stroke-width: 2.25; stroke-linecap: square"/>
   </g>
   <g id="line2d_21">
    <path clip-path="url(#p7a7297ef73)" style="fill: none; stroke: #424242; stroke-width: 2.25; stroke-linecap: square"/>
   </g>
   <g id="line2d_22">
    <path clip-path="url(#p7a7297ef73)" style="fill: none; stroke: #424242; stroke-width: 2.25; stroke-linecap: square"/>
   </g>
   <g id="line2d_23">
    <path clip-path="url(#p7a7297ef73)" style="fill: none; stroke: #424242; stroke-width: 2.25; stroke-linecap: square"/>
   </g>
   <g id="line2d_24">
    <path clip-path="url(#p7a7297ef73)" style="fill: none; stroke: #424242; stroke-width: 2.25; stroke-linecap: square"/>
   </g>
   <g id="line2d_25">
    <path clip-path="url(#p7a7297ef73)" style="fill: none; stroke: #424242; stroke-width: 2.25; stroke-linecap: square"/>
   </g>
   <g id="line2d_26">
    <path clip-path="url(#p7a7297ef73)" style="fill: none; stroke: #424242; stroke-width: 2.25; stroke-linecap: square"/>
   </g>
   <g id="line2d_27">
    <path clip-path="url(#p7a7297ef73)" style="fill: none; stroke: #424242; stroke-width: 2.25; stroke-linecap: square"/>
   </g>
   <g id="patch_13">
    <path d="M 90 384.48 
L 90 51.84 
" style="fill: none; stroke: #000000; stroke-width: 0.8; stroke-linejoin: miter; stroke-linecap: square"/>
   </g>
   <g id="patch_14">
    <path d="M 648 384.48 
L 648 51.84 
" style="fill: none; stroke: #000000; stroke-width: 0.8; stroke-linejoin: miter; stroke-linecap: square"/>
   </g>
   <g id="patch_15">
    <path d="M 90 384.48 
L 648 384.48 
" style="fill: none; stroke: #000000; stroke-width: 0.8; stroke-linejoin: miter; stroke-linecap: square"/>
   </g>
   <g id="patch_16">
    <path d="M 90 51.84 
L 648 51.84 
" style="fill: none; stroke: #000000; stroke-width: 0.8; stroke-linejoin: miter; stroke-linecap: square"/>
   </g>
   <g id="text_20">
    <!-- Listings with Highest Reviews per Month -->
    <g transform="translate(230.483438 45.84) scale(0.12 -0.12)">
     <defs>
      <path id="DejaVuSans-Bold-48" d="M 588 4666 
L 1791 4666 
L 1791 2888 
L 3566 2888 
L 3566 4666 
L 4769 4666 
L 4769 0 
L 3566 0 
L 3566 1978 
L 1791 1978 
L 1791 0 
L 588 0 
L 588 4666 
z
" transform="scale(0.015625)"/>
     </defs>
     <use xlink:href="#DejaVuSans-Bold-4c"/>
     <use xlink:href="#DejaVuSans-Bold-69" transform="translate(63.720703 0)"/>
     <use xlink:href="#DejaVuSans-Bold-73" transform="translate(97.998047 0)"/>
     <use xlink:href="#DejaVuSans-Bold-74" transform="translate(157.519531 0)"/>
     <use xlink:href="#DejaVuSans-Bold-69" transform="translate(205.322266 0)"/>
     <use xlink:href="#DejaVuSans-Bold-6e" transform="translate(239.599609 0)"/>
     <use xlink:href="#DejaVuSans-Bold-67" transform="translate(310.791016 0)"/>
     <use xlink:href="#DejaVuSans-Bold-73" transform="translate(382.373047 0)"/>
     <use xlink:href="#DejaVuSans-Bold-20" transform="translate(441.894531 0)"/>
     <use xlink:href="#DejaVuSans-Bold-77" transform="translate(476.708984 0)"/>
     <use xlink:href="#DejaVuSans-Bold-69" transform="translate(569.091797 0)"/>
     <use xlink:href="#DejaVuSans-Bold-74" transform="translate(603.369141 0)"/>
     <use xlink:href="#DejaVuSans-Bold-68" transform="translate(651.171875 0)"/>
     <use xlink:href="#DejaVuSans-Bold-20" transform="translate(722.363281 0)"/>
     <use xlink:href="#DejaVuSans-Bold-48" transform="translate(757.177734 0)"/>
     <use xlink:href="#DejaVuSans-Bold-69" transform="translate(840.869141 0)"/>
     <use xlink:href="#DejaVuSans-Bold-67" transform="translate(875.146484 0)"/>
     <use xlink:href="#DejaVuSans-Bold-68" transform="translate(946.728516 0)"/>
     <use xlink:href="#DejaVuSans-Bold-65" transform="translate(1017.919922 0)"/>
     <use xlink:href="#DejaVuSans-Bold-73" transform="translate(1085.742188 0)"/>
     <use xlink:href="#DejaVuSans-Bold-74" transform="translate(1145.263672 0)"/>
     <use xlink:href="#DejaVuSans-Bold-20" transform="translate(1193.066406 0)"/>
     <use xlink:href="#DejaVuSans-Bold-52" transform="translate(1227.880859 0)"/>
     <use xlink:href="#DejaVuSans-Bold-65" transform="translate(1304.882812 0)"/>
     <use xlink:href="#DejaVuSans-Bold-76" transform="translate(1372.705078 0)"/>
     <use xlink:href="#DejaVuSans-Bold-69" transform="translate(1437.890625 0)"/>
     <use xlink:href="#DejaVuSans-Bold-65" transform="translate(1472.167969 0)"/>
     <use xlink:href="#DejaVuSans-Bold-77" transform="translate(1539.990234 0)"/>
     <use xlink:href="#DejaVuSans-Bold-73" transform="translate(1632.373047 0)"/>
     <use xlink:href="#DejaVuSans-Bold-20" transform="translate(1691.894531 0)"/>
     <use xlink:href="#DejaVuSans-Bold-70" transform="translate(1726.708984 0)"/>
     <use xlink:href="#DejaVuSans-Bold-65" transform="translate(1798.291016 0)"/>
     <use xlink:href="#DejaVuSans-Bold-72" transform="translate(1866.113281 0)"/>
     <use xlink:href="#DejaVuSans-Bold-20" transform="translate(1915.429688 0)"/>
     <use xlink:href="#DejaVuSans-Bold-4d" transform="translate(1950.244141 0)"/>
     <use xlink:href="#DejaVuSans-Bold-6f" transform="translate(2049.755859 0)"/>
     <use xlink:href="#DejaVuSans-Bold-6e" transform="translate(2118.457031 0)"/>
     <use xlink:href="#DejaVuSans-Bold-74" transform="translate(2189.648438 0)"/>
     <use xlink:href="#DejaVuSans-Bold-68" transform="translate(2237.451172 0)"/>
    </g>
   </g>
  </g>
 </g>
 <defs>
  <clipPath id="p7a7297ef73">
   <rect x="90" y="51.84" width="558" height="332.64"/>
  </clipPath>
 </defs>
</svg>
